<svg width="2214" height="2214" viewBox="0 0 2214 2214" fill="none" xmlns="http://www.w3.org/2000/svg">
<path fill-rule="evenodd" clip-rule="evenodd" d="M1241.01 928.608L929.623 1239.99C918.502 1251.11 918.502 1268.91 929.623 1280.03C980.78 1331.19 1053.62 1351.76 1124.24 1335.64C1138.7 1332.3 1148.71 1316.73 1145.37 1302.27C1142.04 1286.7 1126.47 1277.8 1111.45 1280.59C1069.19 1290.59 1026.38 1282.25 991.345 1258.34L1043.61 1206.07C1098.66 1246.67 1168.73 1254.45 1237.68 1225.54C1251.58 1219.42 1258.81 1203.29 1252.69 1188.28C1246.58 1174.38 1229.89 1167.71 1215.99 1173.82C1168.17 1193.84 1121.46 1190.5 1084.21 1165.48L1281.04 968.644C1356.67 1025.36 1463.99 1019.24 1532.94 950.294C1608.56 874.67 1608.56 752.338 1532.94 676.714C1457.31 601.09 1334.98 601.09 1259.36 676.714C1190.41 745.665 1184.29 852.984 1241.01 928.608ZM1298.84 716.194C1352.22 662.812 1439.52 663.368 1492.9 716.75C1546.28 770.131 1546.84 857.432 1493.46 910.814C1440.08 964.195 1352.22 964.195 1298.84 910.814C1245.46 857.432 1245.46 769.575 1298.84 716.194Z" fill="url(#paint0_linear_63_273)"/>
<g style="mix-blend-mode:overlay" opacity="0.4">
<path d="M1259.36 821.288C1240.45 811.279 1222.1 801.085 1204.31 790.706C1208.76 749.557 1227.11 708.965 1259.36 676.714C1334.98 601.09 1457.31 601.09 1532.94 676.714C1608.56 752.338 1608.56 874.67 1532.94 950.294C1530.34 952.889 1527.56 955.298 1524.6 957.523C1506.43 948.255 1488.08 938.802 1469.55 929.164C1477.7 923.974 1485.67 917.857 1493.46 910.814C1546.84 857.432 1546.28 770.131 1492.9 716.75C1439.52 663.368 1352.22 662.812 1298.84 716.194C1269.92 745.109 1257.13 783.477 1259.36 821.288Z" fill="white"/>
</g>
<path fill-rule="evenodd" clip-rule="evenodd" d="M1156.48 1427.95C1164.26 1435.74 1175.94 1438.52 1186.51 1434.63C1231.55 1418.5 1271.03 1393.48 1304.95 1359.56L1490.67 1173.84C1501.79 1162.72 1501.79 1144.92 1490.67 1133.8C1481.43 1124.56 1463.01 1121.42 1450.63 1133.8C1450.63 1133.8 1357.27 1227.17 1349.15 1235.29L1264.91 1319.52C1237.11 1347.33 1203.74 1368.46 1167.04 1381.8C1153.14 1386.81 1144.8 1402.93 1150.36 1417.39C1151.85 1421.84 1153.88 1425.36 1156.48 1427.95ZM850.092 1359.56C915.707 1425.17 1006.34 1459.09 1098.65 1452.42C1114.22 1451.31 1125.9 1438.52 1124.78 1422.95C1123.67 1407.38 1110.88 1395.7 1095.31 1396.82C1018.58 1401.26 944.066 1373.46 890.128 1319.52C830.63 1260.03 802.827 1174.39 815.616 1091.54C817.841 1075.97 807.832 1061.51 792.262 1059.29C776.692 1057.06 762.235 1067.07 760.011 1082.64C744.441 1183.85 777.805 1287.27 850.092 1359.56ZM797.823 1015.92C799.676 1017.77 801.9 1019.62 804.495 1021.48C818.397 1028.71 835.078 1023.15 842.307 1009.24C855.096 985.333 870.666 964.203 890.128 944.741L1147.67 687.2C1158.23 676.635 1158.23 658.841 1147.11 647.72C1135.99 636.599 1118.2 636.599 1107.63 647.164L850.092 904.705C826.737 928.059 807.832 954.75 792.818 983.109C786.701 994.786 789.482 1007.58 797.823 1015.92ZM1169.26 626.683C1179.83 637.248 1196.51 637.248 1207.63 627.239C1312.72 533.265 1472.87 536.602 1572.96 636.692C1638.02 701.751 1664.15 794.612 1643.58 885.249C1639.69 900.263 1649.14 915.276 1664.15 919.169C1679.72 922.505 1694.74 913.052 1698.07 897.483C1723.65 788.496 1691.4 676.172 1612.44 597.212C1491.22 475.991 1297.16 470.987 1170.37 585.535C1158.7 596.1 1157.59 613.893 1168.15 625.571C1168.52 625.941 1168.89 626.312 1169.26 626.683ZM1545.16 1079.31C1556.28 1090.43 1574.08 1090.43 1584.64 1079.86L1632.74 1031.77C1643.86 1020.65 1643.86 1002.85 1632.74 991.733C1621.62 980.612 1603.82 980.612 1592.7 991.733L1544.61 1039.83C1534.04 1050.39 1534.04 1068.19 1545.16 1079.31ZM882.343 1197.19C889.016 1203.86 899.581 1206.64 909.034 1203.86C924.603 1200.53 933.5 1184.96 929.608 1169.94C916.263 1117.67 931.832 1062.07 969.644 1024.26L1137.66 856.243C1148.22 845.678 1148.22 827.884 1137.1 816.763C1125.98 805.642 1108.19 805.642 1097.62 816.207L929.608 984.221C877.895 1035.93 856.765 1112.67 874.559 1183.85C876.227 1188.85 878.451 1193.3 882.343 1197.19ZM1301.05 1164.38C1312.18 1175.5 1329.97 1175.5 1341.09 1164.38L1400.21 1105.26C1410.78 1094.7 1410.77 1076.9 1399.65 1065.78C1388.53 1054.66 1370.74 1054.66 1360.17 1065.23L1301.05 1124.35C1289.93 1135.47 1289.93 1153.26 1301.05 1164.38ZM1121.44 519.92C1131.45 529.929 1147.02 531.041 1158.14 522.144C1307.72 410.377 1520.13 424.834 1652.48 557.176C1700.85 605.553 1735.33 666.719 1752.01 733.446C1755.9 748.459 1770.92 757.912 1785.93 754.02C1800.94 750.128 1810.4 735.114 1806.5 720.1C1787.6 643.365 1748.12 573.858 1691.96 517.696C1540.15 365.892 1296.04 348.655 1124.78 477.66C1111.99 487.113 1109.21 504.351 1118.66 517.14C1119.77 518.252 1120.7 519.179 1121.44 519.92ZM1512.24 1271.27C1523.36 1282.39 1541.15 1282.39 1552.27 1271.27L1703.46 1120.08C1779.08 1044.46 1823.57 944.367 1830.24 837.604C1830.24 822.034 1819.12 808.689 1803.55 807.577C1787.42 807.021 1774.63 818.698 1773.52 834.267C1768.52 927.129 1729.04 1014.43 1663.42 1080.04L1512.23 1231.23C1501.11 1242.35 1501.11 1260.15 1512.24 1271.27ZM826.737 1486.34C827.85 1487.45 829.147 1488.38 830.63 1489.12C1003.56 1608.67 1236 1587.54 1384.46 1439.08L1482.33 1341.21C1493.45 1330.09 1493.45 1312.29 1482.33 1301.17C1471.21 1290.05 1453.41 1290.05 1442.29 1301.17L1344.43 1399.04C1215.42 1528.04 1013.02 1546.95 862.881 1443.52C850.092 1434.07 832.298 1437.41 823.957 1450.2C815.616 1461.87 817.284 1476.89 826.737 1486.34ZM748.334 1414.61C758.343 1424.62 775.024 1425.73 786.701 1416.28C797.823 1406.27 799.491 1387.92 789.482 1376.8C662.701 1227.77 672.154 1003.68 810.612 865.225C821.733 854.104 821.733 836.31 810.612 825.189C799.491 814.068 781.697 814.068 770.576 825.189C611.543 984.221 601.535 1242.23 746.665 1412.94C747.036 1413.31 747.592 1413.87 748.334 1414.61ZM828.962 806.839C840.083 817.96 857.877 817.96 868.998 806.839L1096.14 579.695C1106.71 569.13 1106.71 551.336 1095.59 540.215C1084.46 529.094 1066.67 529.094 1056.11 539.659L828.962 766.803C817.841 777.924 817.841 795.718 828.962 806.839Z" fill="url(#paint1_linear_63_273)"/>
<path d="M1772.13 1123.24C1749.63 1164.52 1720.92 1203.32 1685.98 1238.25L1439.2 1485.03C1242.97 1681.27 924.8 1681.27 728.561 1485.03C532.323 1288.8 532.323 970.631 728.561 774.392L975.342 527.612C1010.4 492.551 1049.36 463.754 1090.81 441.222C1016.78 436.02 940.7 442.035 864.747 460.593C470.599 556.898 229.149 954.487 325.453 1348.64C421.758 1742.78 819.347 1984.23 1213.5 1887.93C1566.45 1801.69 1796.95 1473.85 1772.13 1123.24Z" fill="url(#paint2_linear_63_273)"/>
<defs>
<linearGradient id="paint0_linear_63_273" x1="598.769" y1="-309.246" x2="-301.096" y2="590.619" gradientUnits="userSpaceOnUse">
<stop stop-color="#BA55FF"/>
<stop offset="1" stop-color="#35029C"/>
</linearGradient>
<linearGradient id="paint1_linear_63_273" x1="985.647" y1="-1033.29" x2="-947.284" y2="899.644" gradientUnits="userSpaceOnUse">
<stop stop-color="#64EBEC"/>
<stop offset="1" stop-color="#3B31BC"/>
</linearGradient>
<linearGradient id="paint2_linear_63_273" x1="-2175.93" y1="-2903.8" x2="-3536.09" y2="-1543.63" gradientUnits="userSpaceOnUse">
<stop stop-color="#BA55FF"/>
<stop offset="1" stop-color="#35029C"/>
</linearGradient>
</defs>
</svg>
