<svg width="2029" height="538" viewBox="0 0 2029 538" fill="none" xmlns="http://www.w3.org/2000/svg">
<path d="M159.463 502.007C155.531 496.634 153.357 487.353 152.869 474.213C152.38 461.073 152.136 447.347 152.136 433.254V188.21C152.136 176.014 152.258 163.941 152.502 151.989C152.747 140.038 152.869 127.973 152.869 115.793C153.357 104.591 153.724 92.6396 153.968 79.9392C153.803 69.0644 156.178 58.3011 160.904 48.5056C166.496 37.4359 176.229 29.0192 187.99 25.0832C198.697 21.4361 209.707 18.7471 220.889 17.0479V9.7207H2.19813V17.0479C13.7929 18.2584 25.2045 20.8324 36.1961 24.7168C46.0733 28.2994 54.7932 34.4953 61.4259 42.644C64.7172 46.8125 66.9767 51.6997 68.0204 56.9074C69.5912 63.6536 70.6929 70.5006 71.3176 77.399C72.0503 84.9378 72.4166 93.0791 72.4166 101.823V313.211C72.4166 327.865 72.2945 342.129 72.0503 356.002C71.7816 369.899 71.5618 382.697 71.3176 394.396C71.0733 406.095 70.9512 415.376 70.9512 422.19C70.9512 430.006 70.9512 437.919 70.5849 445.979C70.2185 454.039 69.8521 461.684 69.1194 469.011C68.5291 475.406 67.5503 481.76 66.1886 488.037C65.3497 492.548 63.4771 496.803 60.7176 500.469C53.3915 508.774 44.2477 515.276 33.9979 519.47C23.0854 523.989 11.6718 527.187 0 528.996V536.323H221.622V528.996C209.889 527.674 198.354 524.968 187.257 520.936C174.557 516.621 165.292 510.311 159.463 502.007Z" fill="#35029C"/>
<path d="M907.051 512.607C902.093 509.258 897.551 505.33 893.52 500.908C891.498 498.745 889.659 496.417 888.025 493.947C884.617 486.952 882.507 479.397 881.797 471.648C880.595 462.31 879.992 452.904 879.989 443.488C879.485 414.717 879.24 387.411 879.257 361.57V216.004C879.257 194.039 879.501 171.366 879.989 147.984C880.445 130.904 881.17 113.587 882.163 96.0344C883.156 78.4818 885.11 65.5616 888.025 57.2738C892.263 46.0835 899.737 36.408 909.493 29.4795C919.996 21.6802 935.236 17.5363 955.215 17.0479V9.7207H799.586C798.121 13.6285 792.145 27.8919 781.659 52.5111C771.173 77.1304 757.764 107.978 741.433 145.053C725.15 182.096 706.743 223.543 686.211 269.395C665.678 315.246 644.715 361.326 623.319 407.634L448.371 9.7207H292.572V17.0479C298.409 18.0248 305.492 19.6122 313.772 21.7859C322.114 24.0049 330.029 27.5954 337.194 32.4104C344.882 37.6869 351.36 44.5388 356.196 52.5111C361.569 61.0595 364.5 72.1561 364.988 85.8008C365.453 99.9422 365.721 111.885 365.721 121.631V213.806C365.721 246.485 365.477 277.08 364.988 305.591C364.5 334.102 363.767 358.851 362.79 379.839C362.613 401.03 360.898 422.179 357.661 443.121C355.426 458.288 350.732 472.989 343.764 486.645C337.834 497.909 328.996 507.379 318.168 514.073C307.454 520.586 293.557 525.584 276.477 529.069V536.396H467.422V529.069C446.434 526.138 429.972 521.384 418.037 514.805C406.584 508.722 397.268 499.279 391.342 487.744C384.996 474.438 381.273 460.034 380.375 445.32C378.91 428.5 378.177 408.627 378.177 385.701V292.06C378.177 265.259 378.299 239.785 378.544 215.638C378.788 191.491 379.032 167.067 379.276 142.367C379.521 117.747 379.643 89.3423 379.643 57.1517C382.069 62.525 386.579 72.7667 393.174 87.877C399.768 102.987 408.178 121.761 418.403 144.198C428.645 166.619 440.108 192.216 452.792 220.987C465.476 249.758 479.129 280.605 493.751 313.529C508.405 346.452 523.401 380.71 538.74 416.304C554.078 451.898 569.546 487.719 585.145 523.769H589.541C590.518 520.838 592.936 514.879 596.868 505.842C600.801 496.805 604.928 486.84 609.324 475.849C613.721 464.859 618.093 454.161 622.489 443.683C626.885 433.205 630.28 425.512 632.722 420.627C648.81 384.561 663.562 351.524 676.978 321.515C690.395 291.506 703.682 262.133 716.838 233.394C729.994 204.623 743.281 175.119 756.698 144.882C770.115 114.645 784.867 81.486 800.954 45.4039V343.277C800.954 372.585 800.465 403.303 799.488 435.428C799.009 445.103 798.031 454.747 796.558 464.321C795.485 472.518 793.273 480.525 789.988 488.11C785.103 498.352 775.594 507.372 761.461 515.172C747.327 522.971 729.775 527.359 708.803 528.336V536.372H959.66V529.044C949.233 528.782 938.906 526.937 929.032 523.574C921.243 520.93 913.848 517.241 907.051 512.607Z" fill="#35029C"/>
<path d="M1483.46 368.875C1459.03 410.803 1431.12 445.428 1399.71 472.75C1368.3 500.072 1332.79 515.915 1293.2 520.279C1279.05 521.744 1265.51 522.721 1252.6 523.21C1239.69 523.698 1229.11 523.942 1220.85 523.942H1161.55C1142.01 523.942 1120.03 523.698 1095.61 523.21L1465.09 15.5847L1462.89 11.1884H1228.84C1200.07 11.1884 1173.25 11.0663 1148.39 10.822C1123.52 10.5778 1102.06 10.3336 1084.01 10.0893C1065.95 9.8451 1053.52 9.47871 1046.71 8.99023L993.295 164.79L1001.35 167.721C1007.55 157.748 1014.26 148.104 1021.46 138.827C1029.52 128.358 1037.93 117.994 1046.71 107.736C1055.49 97.4777 1064.14 88.0909 1072.67 79.5752C1081.2 71.0431 1088.39 64.3429 1094.24 59.4744C1106.61 49.6105 1120.28 41.4836 1134.86 35.3192C1150.78 28.7509 1167.74 25.0388 1184.95 24.3529C1194.21 23.897 1206.77 23.5306 1222.61 23.2538C1238.45 22.977 1255.16 22.8548 1272.73 22.8874H1364.88L994.76 531.269L997.691 536.374H1438.76L1491.42 371.733L1483.46 368.875Z" fill="#35029C"/>
<path d="M1999.78 521.62C1992.19 518.189 1985.16 513.627 1978.94 508.089C1973.89 503.612 1969.35 498.581 1965.41 493.093C1963 489.822 1960.8 486.404 1958.82 482.859C1952.99 470.175 1947.75 458.834 1943.09 448.837C1938.43 438.839 1933.43 426.285 1928.09 411.175C1916.4 380.45 1904.7 349.367 1893 317.925C1881.29 286.483 1869.21 253.918 1856.77 220.23C1844.33 186.606 1831.31 151.599 1817.7 115.207C1804.08 78.8157 1789.7 40.4133 1774.54 0H1768.7C1766.75 3.41934 1763.94 7.80752 1760.28 13.1645C1756.17 19.089 1751.65 24.7127 1746.75 29.9925C1741.04 36.1444 1734.79 41.7758 1728.09 46.8204C1720.73 52.3613 1712.76 57.0252 1704.32 60.7176L1711.65 76.813C1699.93 104.119 1687.49 133.493 1674.33 164.934C1661.17 196.376 1647.89 227.589 1634.47 258.575L1595.39 348.943C1582.69 378.252 1571.23 404.304 1561 427.099C1552.57 446.486 1542.99 465.351 1532.3 483.592C1524.52 496.276 1518.91 504.319 1515.48 507.723C1514.03 509.676 1508.78 513.34 1499.75 518.713C1489.75 524.383 1478.66 527.871 1467.21 528.947V536.982H1623.01V529.655C1616.66 528.678 1609.96 527.579 1602.89 526.358C1596.1 525.218 1589.47 523.25 1583.15 520.496C1577.51 518.149 1572.4 514.665 1568.16 510.263C1564.2 506.001 1562.09 500.346 1562.3 494.534C1562.3 483.804 1567.42 465.274 1577.66 438.945C1584.47 421.865 1591.3 404.923 1598.15 388.119C1605.01 371.316 1612.07 353.633 1619.35 335.071H1813.91C1821.24 354.089 1828.07 372.382 1834.4 389.951C1840.74 407.52 1846.35 423.485 1851.23 437.846C1856.12 452.224 1859.89 464.435 1862.56 474.482C1864.73 481.492 1866.08 488.728 1866.59 496.048C1866.69 499.186 1866.12 502.309 1864.92 505.21C1863.72 508.112 1861.92 510.724 1859.63 512.876C1854.98 517.291 1849.51 520.766 1843.54 523.11C1834.53 526.683 1825.04 528.905 1815.38 529.704V537.031H2028.96V528.263C2018.89 528.006 2008.97 525.748 1999.78 521.62ZM1626.09 319.732C1637.78 290.994 1648.63 264.298 1658.62 239.647C1668.62 214.995 1677.76 192.932 1686.05 173.458C1694.36 153.919 1701.31 137.335 1706.91 123.707C1712.51 110.078 1716.78 100.081 1719.71 93.7142C1724.1 104.461 1729.59 118.236 1736.17 135.039C1742.75 151.843 1750.08 170.381 1758.15 190.652C1766.29 210.875 1774.59 231.961 1783.04 253.91C1791.49 275.859 1799.9 297.84 1808.27 319.855L1626.09 319.732Z" fill="#35029C"/>
</svg>
