<svg width="2030" height="538" viewBox="0 0 2030 538" fill="none" xmlns="http://www.w3.org/2000/svg">
<path d="M159.617 502.976C155.685 497.603 153.512 488.322 153.023 475.182C152.535 462.042 152.29 448.315 152.29 434.223V189.179C152.29 176.983 152.412 164.91 152.657 152.958C152.901 141.007 153.023 128.941 153.023 116.762C153.512 105.56 153.878 93.6083 154.122 80.908C153.957 70.0332 156.332 59.2699 161.058 49.4744C166.65 38.4046 176.384 29.988 188.144 26.052C198.851 22.4049 209.861 19.7159 221.043 18.0166V10.6895H2.35243V18.0166C13.9472 19.2271 25.3588 21.8012 36.3504 25.6856C46.2276 29.2681 54.9474 35.4641 61.5802 43.6127C64.8715 47.7812 67.131 52.6685 68.1746 57.8762C69.7455 64.6224 70.8472 71.4693 71.4719 78.3678C72.2046 85.9066 72.5709 94.0479 72.5709 102.792V314.18C72.5709 328.834 72.4488 343.098 72.2046 356.97C71.9359 370.868 71.7161 383.666 71.4719 395.365C71.2276 407.064 71.1055 416.345 71.1055 423.159C71.1055 430.975 71.1055 438.888 70.7392 446.948C70.3728 455.008 70.0064 462.652 69.2737 469.979C68.6834 476.375 67.7046 482.729 66.3429 489.006C65.504 493.516 63.6314 497.772 60.8719 501.437C53.5458 509.743 44.402 516.245 34.1522 520.439C23.2397 524.958 11.8261 528.156 0.154297 529.964V537.292H221.776V529.964C210.044 528.642 198.509 525.937 187.412 521.905C174.711 517.59 165.447 511.28 159.617 502.976Z" fill="url(#paint0_linear_63_214)"/>
<path d="M907.205 513.576C902.247 510.226 897.705 506.299 893.674 501.877C891.652 499.714 889.814 497.385 888.179 494.916C884.772 487.921 882.661 480.366 881.951 472.617C880.75 463.278 880.146 453.872 880.144 444.457C879.639 415.685 879.395 388.38 879.411 362.539V216.973C879.411 195.008 879.655 172.334 880.144 148.953C880.6 131.872 881.324 114.556 882.317 97.0032C883.311 79.4506 885.264 66.5304 888.179 58.2426C892.418 47.0522 899.891 37.3767 909.648 30.4482C920.15 22.6489 935.39 18.5051 955.369 18.0166V10.6895H799.74C798.275 14.5973 792.299 28.8607 781.813 53.4799C771.327 78.0991 757.919 108.946 741.587 146.022C725.305 183.065 706.897 224.512 686.365 270.363C665.833 316.215 644.869 362.295 623.474 408.602L448.526 10.6895H292.726V18.0166C298.563 18.9936 305.646 20.581 313.926 22.7547C322.268 24.9737 330.184 28.5642 337.348 33.3791C345.037 38.6556 351.514 45.5076 356.35 53.4799C361.723 62.0282 364.654 73.1248 365.143 86.7696C365.607 100.911 365.875 112.854 365.875 122.599V214.775C365.875 247.454 365.631 278.049 365.143 306.56C364.654 335.07 363.922 359.82 362.945 380.808C362.767 401.998 361.053 423.148 357.816 444.09C355.58 459.257 350.886 473.958 343.918 487.613C337.988 498.877 329.15 508.348 318.322 515.042C307.608 521.555 293.711 526.553 276.631 530.038V537.365H467.576V530.038C446.588 527.107 430.126 522.352 418.191 515.774C406.738 509.691 397.423 500.247 391.496 488.713C385.151 475.406 381.427 461.003 380.53 446.288C379.064 429.468 378.332 409.596 378.332 386.67V293.029C378.332 266.228 378.454 240.754 378.698 216.607C378.942 192.46 379.187 168.036 379.431 143.335C379.675 118.716 379.797 90.3111 379.797 58.1205C382.223 63.4937 386.733 73.7355 393.328 88.8457C399.922 103.956 408.332 122.73 418.558 145.167C428.799 167.588 440.262 193.184 452.946 221.956C465.631 250.727 479.283 281.574 493.905 314.497C508.56 347.421 523.556 381.679 538.894 417.273C554.232 452.867 569.701 488.688 585.299 524.738H589.695C590.672 521.807 593.09 515.847 597.023 506.811C600.955 497.774 605.082 487.809 609.479 476.818C613.875 465.827 618.247 455.13 622.643 444.652C627.039 434.174 630.434 426.481 632.877 421.596C648.964 385.53 663.716 352.493 677.133 322.484C690.55 292.475 703.836 263.101 716.992 234.363C730.149 205.591 743.435 176.088 756.852 145.851C770.269 115.614 785.021 82.4548 801.108 46.3726V344.246C801.108 373.554 800.62 404.271 799.643 436.397C799.163 446.072 798.185 455.716 796.712 465.29C795.639 473.487 793.428 481.494 790.142 489.079C785.257 499.321 775.748 508.341 761.615 516.14C747.482 523.94 729.929 528.328 708.957 529.305V537.34H959.814V530.013C949.387 529.751 939.06 527.906 929.187 524.542C921.397 521.899 914.002 518.21 907.205 513.576Z" fill="url(#paint1_linear_63_214)"/>
<path d="M1483.61 369.844C1459.19 411.772 1431.27 446.396 1399.86 473.719C1368.45 501.041 1332.95 516.884 1293.35 521.247C1279.2 522.713 1265.67 523.69 1252.76 524.178C1239.84 524.667 1229.26 524.911 1221.01 524.911H1161.7C1142.17 524.911 1120.18 524.667 1095.76 524.178L1465.24 16.5534L1463.05 12.1572H1228.99C1200.22 12.1572 1173.4 12.035 1148.54 11.7908C1123.68 11.5465 1102.22 11.3023 1084.16 11.0581C1066.1 10.8138 1053.67 10.4475 1046.86 9.95898L993.449 165.759L1001.51 168.689C1007.7 158.716 1014.41 149.072 1021.61 139.796C1029.67 129.326 1038.09 118.963 1046.86 108.704C1055.64 98.4465 1064.29 89.0597 1072.83 80.5439C1081.36 72.0118 1088.55 65.3116 1094.39 60.4431C1106.77 50.5792 1120.43 42.4523 1135.01 36.2879C1150.93 29.7196 1167.89 26.0075 1185.1 25.3217C1194.37 24.8658 1206.92 24.4994 1222.76 24.2226C1238.61 23.9458 1255.31 23.8236 1272.88 23.8561H1365.03L994.915 532.238L997.845 537.343H1438.92L1491.57 372.702L1483.61 369.844Z" fill="url(#paint2_linear_63_214)"/>
<path d="M1999.93 522.588C1992.34 519.158 1985.32 514.596 1979.1 509.058C1974.04 504.58 1969.5 499.55 1965.57 494.061C1963.16 490.791 1960.96 487.373 1958.97 483.828C1953.14 471.144 1947.9 459.803 1943.24 449.805C1938.59 439.808 1933.59 427.254 1928.25 412.144C1916.56 381.419 1904.86 350.335 1893.15 318.894C1881.44 287.452 1869.37 254.887 1856.93 221.198C1844.49 187.575 1831.46 152.567 1817.85 116.176C1804.24 79.7844 1789.85 41.382 1774.69 0.96875H1768.86C1766.9 4.38809 1764.09 8.77627 1760.43 14.1332C1756.33 20.0578 1751.81 25.6815 1746.9 30.9613C1741.19 37.1131 1734.95 42.7445 1728.24 47.7892C1720.89 53.33 1712.91 57.9939 1704.48 61.6864L1711.8 77.7817C1700.08 105.088 1687.64 134.461 1674.48 165.903C1661.33 197.345 1648.04 228.558 1634.62 259.544L1595.55 349.912C1582.85 379.221 1571.38 405.273 1561.16 428.068C1552.73 447.455 1543.14 466.319 1532.46 484.561C1524.68 497.245 1519.07 505.288 1515.63 508.691C1514.18 510.645 1508.94 514.309 1499.9 519.682C1489.9 525.352 1478.81 528.84 1467.37 529.916V537.951H1623.17V530.624C1616.82 529.647 1610.11 528.548 1603.04 527.327C1596.25 526.187 1589.62 524.218 1583.31 521.465C1577.66 519.117 1572.56 515.634 1568.31 511.231C1564.36 506.97 1562.25 501.314 1562.45 495.503C1562.45 484.772 1567.57 466.243 1577.81 439.914C1584.62 422.833 1591.45 405.891 1598.31 389.088C1605.16 372.284 1612.23 354.601 1619.51 336.039H1814.07C1821.39 355.057 1828.22 373.351 1834.56 390.92C1840.89 408.489 1846.5 424.454 1851.39 438.815C1856.27 453.192 1860.05 465.404 1862.72 475.451C1864.88 482.461 1866.24 489.697 1866.75 497.017C1866.85 500.155 1866.28 503.278 1865.08 506.179C1863.88 509.08 1862.07 511.693 1859.79 513.845C1855.13 518.26 1849.67 521.735 1843.69 524.078C1834.68 527.651 1825.19 529.874 1815.53 530.673V538H2029.12V529.232C2019.04 528.975 2009.12 526.716 1999.93 522.588ZM1626.25 320.701C1637.94 291.962 1648.78 265.267 1658.78 240.615C1668.78 215.964 1677.92 193.901 1686.21 174.427C1694.51 154.888 1701.46 138.304 1707.06 124.675C1712.67 111.047 1716.93 101.049 1719.86 94.683C1724.26 105.429 1729.75 119.205 1736.32 136.008C1742.9 152.812 1750.23 171.349 1758.31 191.621C1766.45 211.844 1774.74 232.93 1783.19 254.879C1791.64 276.828 1800.05 298.809 1808.42 320.823L1626.25 320.701Z" fill="url(#paint3_linear_63_214)"/>
<defs>
<linearGradient id="paint0_linear_63_214" x1="888.696" y1="-11.9132" x2="888.696" y2="773.531" gradientUnits="userSpaceOnUse">
<stop stop-color="#BA55FF"/>
<stop offset="1" stop-color="#35029C"/>
</linearGradient>
<linearGradient id="paint1_linear_63_214" x1="3015.7" y1="-11.9164" x2="3015.7" y2="773.638" gradientUnits="userSpaceOnUse">
<stop stop-color="#BA55FF"/>
<stop offset="1" stop-color="#35029C"/>
</linearGradient>
<linearGradient id="paint2_linear_63_214" x1="2990.56" y1="-12.6773" x2="2990.56" y2="773.933" gradientUnits="userSpaceOnUse">
<stop stop-color="#BA55FF"/>
<stop offset="1" stop-color="#35029C"/>
</linearGradient>
<linearGradient id="paint3_linear_63_214" x1="3719.57" y1="-22.0816" x2="3719.57" y2="778.918" gradientUnits="userSpaceOnUse">
<stop stop-color="#BA55FF"/>
<stop offset="1" stop-color="#35029C"/>
</linearGradient>
</defs>
</svg>
