<svg width="624" height="166" viewBox="0 0 624 166" fill="none" xmlns="http://www.w3.org/2000/svg">
<path d="M48.985 154.603C47.7771 152.953 47.1093 150.102 46.9593 146.065C46.8092 142.029 46.7342 137.812 46.7342 133.483V58.2089C46.7342 54.4626 46.7717 50.7538 46.8467 47.0825C46.9218 43.4112 46.9593 39.7049 46.9593 35.9635C47.1093 32.5223 47.2219 28.851 47.2969 24.9496C47.2463 21.609 47.9759 18.3027 49.4277 15.2936C51.1454 11.8931 54.1354 9.30765 57.7481 8.09856C61.0371 6.97822 64.4191 6.1522 67.8542 5.6302V3.37939H0.675237V5.6302C4.23701 6.00206 7.74248 6.79277 11.119 7.986C14.1531 9.08652 16.8317 10.9898 18.8692 13.493C19.8803 14.7735 20.5744 16.2748 20.895 17.8745C21.3775 19.9469 21.7159 22.0502 21.9078 24.1693C22.1329 26.4851 22.2454 28.986 22.2454 31.672V96.6076C22.2454 101.109 22.2079 105.491 22.1329 109.752C22.0504 114.021 21.9829 117.953 21.9078 121.547C21.8328 125.14 21.7953 127.991 21.7953 130.085C21.7953 132.485 21.7953 134.916 21.6827 137.392C21.5702 139.868 21.4577 142.216 21.2326 144.467C21.0512 146.432 20.7506 148.384 20.3323 150.312C20.0746 151.698 19.4993 153.005 18.6517 154.131C16.4012 156.682 13.5923 158.679 10.4437 159.968C7.09154 161.356 3.58542 162.338 0 162.894V165.145H68.0793V162.894C64.4752 162.488 60.9318 161.657 57.523 160.418C53.6216 159.092 50.7756 157.154 48.985 154.603Z" fill="#0070BF"/>
<path d="M278.635 157.86C277.112 156.831 275.716 155.624 274.478 154.266C273.857 153.601 273.292 152.886 272.79 152.127C271.743 149.979 271.095 147.658 270.877 145.278C270.508 142.409 270.322 139.519 270.322 136.627C270.167 127.789 270.092 119.401 270.097 111.463V66.747C270.097 59.9996 270.172 53.0346 270.322 45.8521C270.462 40.6052 270.684 35.2858 270.989 29.8938C271.294 24.5019 271.895 20.533 272.79 17.9871C274.092 14.5496 276.388 11.5774 279.385 9.44904C282.611 7.05318 287.293 5.78025 293.43 5.6302V3.37939H245.623C245.173 4.57982 243.337 8.96136 240.116 16.5241C236.895 24.0868 232.776 33.5627 227.759 44.9517C222.757 56.3308 217.103 69.0628 210.795 83.1478C204.488 97.2329 198.048 111.388 191.476 125.613L137.734 3.37939H89.8747V5.6302C91.6678 5.93031 93.8436 6.41794 96.387 7.08567C98.9496 7.76733 101.381 8.87028 103.582 10.3494C105.944 11.9702 107.934 14.0751 109.419 16.5241C111.07 19.15 111.97 22.5587 112.12 26.7502C112.263 31.0943 112.345 34.7631 112.345 37.7566V66.0718C112.345 76.1104 112.27 85.5087 112.12 94.2668C111.97 103.025 111.745 110.628 111.445 117.075C111.39 123.584 110.864 130.081 109.869 136.514C109.183 141.173 107.741 145.689 105.6 149.884C103.779 153.344 101.064 156.254 97.7375 158.31C94.4463 160.31 90.1773 161.846 84.9304 162.916V165.167H143.586V162.916C137.139 162.016 132.082 160.556 128.416 158.535C124.898 156.666 122.036 153.765 120.216 150.222C118.266 146.134 117.122 141.71 116.847 137.19C116.397 132.023 116.172 125.918 116.172 118.876V90.1104C116.172 81.8774 116.209 74.0521 116.284 66.6345C116.359 59.2168 116.434 51.7142 116.509 44.1264C116.584 36.5637 116.622 27.8381 116.622 17.9496C117.367 19.6002 118.752 22.7463 120.778 27.388C122.804 32.0296 125.387 37.7967 128.528 44.6891C131.675 51.5766 135.196 59.4394 139.092 68.2776C142.989 77.1157 147.183 86.5916 151.674 96.7052C156.176 106.819 160.783 117.343 165.494 128.276C170.206 139.21 174.958 150.214 179.749 161.288H181.1C181.4 160.388 182.143 158.557 183.351 155.781C184.558 153.005 185.826 149.944 187.177 146.568C188.527 143.192 189.87 139.906 191.221 136.687C192.571 133.468 193.614 131.105 194.364 129.604C199.306 118.526 203.838 108.377 207.959 99.1586C212.081 89.9403 216.162 80.9171 220.204 72.0889C224.245 63.2507 228.327 54.1875 232.448 44.8992C236.57 35.6109 241.101 25.4248 246.043 14.3408V105.843C246.043 114.847 245.893 124.283 245.593 134.151C245.446 137.123 245.145 140.086 244.692 143.027C244.363 145.545 243.684 148.004 242.674 150.334C241.174 153.48 238.253 156.251 233.911 158.647C229.57 161.043 224.178 162.391 217.735 162.691V165.16H294.795V162.909C291.592 162.828 288.42 162.262 285.387 161.228C282.994 160.416 280.723 159.283 278.635 157.86Z" fill="#0070BF"/>
<path d="M455.698 113.706C448.195 126.585 439.62 137.222 429.971 145.615C420.323 154.008 409.416 158.874 397.252 160.215C392.905 160.665 388.749 160.965 384.782 161.115C380.816 161.265 377.565 161.34 375.029 161.34H356.812C350.81 161.34 344.058 161.265 336.555 161.115L450.056 5.17954L449.38 3.82907H377.482C368.644 3.82907 360.406 3.79154 352.768 3.71651C345.131 3.64148 338.538 3.56647 332.991 3.49144C327.444 3.41641 323.626 3.30386 321.535 3.15381L305.126 51.0134L307.602 51.9137C309.505 48.8501 311.566 45.8876 313.777 43.0381C316.253 39.8219 318.839 36.6383 321.535 33.4871C324.231 30.336 326.889 27.4525 329.51 24.8366C332.131 22.2156 334.339 20.1574 336.135 18.6619C339.937 15.6318 344.135 13.1353 348.612 11.2417C353.504 9.22402 358.713 8.08371 364 7.87302C366.846 7.73297 370.702 7.62042 375.569 7.53539C380.436 7.45036 385.568 7.41283 390.965 7.42283H419.272L305.577 163.591L306.477 165.159H441.968L458.144 114.584L455.698 113.706Z" fill="#0070BF"/>
<path d="M614.304 160.628C611.973 159.574 609.815 158.173 607.905 156.471C606.351 155.096 604.957 153.551 603.748 151.865C603.008 150.86 602.332 149.81 601.722 148.721C599.932 144.825 598.321 141.341 596.891 138.27C595.46 135.199 593.925 131.342 592.284 126.701C588.693 117.262 585.099 107.714 581.503 98.0554C577.906 88.397 574.198 78.3934 570.376 68.0447C566.555 57.716 562.553 46.9622 558.372 35.7832C554.19 24.6042 549.771 12.8075 545.115 0.393066H543.322C542.721 1.44344 541.859 2.79143 540.733 4.43702C539.473 6.25696 538.084 7.98448 536.577 9.60638C534.823 11.4961 532.905 13.226 530.845 14.7757C528.586 16.4778 526.136 17.9104 523.545 19.0447L525.795 23.989C522.194 32.377 518.373 41.4002 514.331 51.0587C510.29 60.7171 506.208 70.3055 502.087 79.8239L490.083 107.584C486.181 116.587 482.66 124.59 479.519 131.592C476.929 137.548 473.985 143.343 470.703 148.946C468.312 152.842 466.589 155.313 465.534 156.359C465.089 156.959 463.478 158.084 460.702 159.735C457.63 161.477 454.224 162.548 450.708 162.879V165.347H498.568V163.096C496.617 162.796 494.557 162.458 492.386 162.083C490.299 161.733 488.263 161.128 486.324 160.283C484.589 159.562 483.021 158.492 481.717 157.139C480.501 155.83 479.854 154.093 479.916 152.307C479.916 149.011 481.49 143.319 484.636 135.231C486.726 129.984 488.825 124.78 490.93 119.618C493.036 114.456 495.207 109.024 497.443 103.322H557.209C559.46 109.164 561.558 114.784 563.504 120.181C565.449 125.578 567.173 130.482 568.673 134.894C570.174 139.31 571.334 143.062 572.154 146.148C572.82 148.301 573.235 150.524 573.392 152.772C573.423 153.736 573.248 154.696 572.879 155.587C572.51 156.478 571.956 157.281 571.254 157.942C569.824 159.298 568.145 160.366 566.31 161.085C563.542 162.183 560.627 162.866 557.659 163.111V165.362H623.27V162.669C620.176 162.59 617.128 161.896 614.304 160.628ZM499.513 98.6107C503.105 89.7825 506.436 81.582 509.507 74.0093C512.578 66.4366 515.387 59.6592 517.933 53.6771C520.483 47.675 522.619 42.5806 524.34 38.3942C526.06 34.2077 527.371 31.1365 528.271 29.1808C529.622 32.482 531.307 36.7136 533.328 41.8754C535.349 47.0373 537.6 52.7318 540.08 58.959C542.581 65.1712 545.13 71.6485 547.726 78.3909C550.322 85.1333 552.905 91.8857 555.476 98.6482L499.513 98.6107Z" fill="#0070BF"/>
</svg>
