<svg width="2346" height="3033" viewBox="0 0 2346 3033" fill="none" xmlns="http://www.w3.org/2000/svg">
<path d="M1927.44 1159.66C1902.97 1204.56 1871.74 1246.76 1833.75 1284.76L1565.34 1553.17C1351.9 1766.6 1005.85 1766.6 792.413 1553.17C578.976 1339.73 578.976 993.678 792.413 780.24L1060.82 511.831C1098.96 473.697 1141.32 442.376 1186.41 417.869C1105.89 412.211 1023.14 418.754 940.535 438.938C511.842 543.683 249.23 976.119 353.975 1404.81C458.72 1833.5 891.156 2096.12 1319.85 1991.37C1703.73 1897.57 1954.44 1541.01 1927.44 1159.66Z" fill="url(#paint0_linear_63_261)"/>
<path d="M1129.01 1259.97L987.007 1401.97V1401.97C1010.28 1425.25 1048.01 1425.25 1071.29 1401.97L1129.01 1344.25C1152.28 1320.98 1152.28 1283.24 1129.01 1259.97V1259.97Z" fill="url(#paint1_linear_63_261)"/>
<path d="M1145.37 1311.12L1040.6 1415.89V1415.89C1063.87 1439.16 1101.6 1439.16 1124.88 1415.89L1145.37 1395.4C1168.64 1372.12 1168.64 1334.39 1145.37 1311.12V1311.12Z" fill="url(#paint2_linear_63_261)"/>
<path fill-rule="evenodd" clip-rule="evenodd" d="M931.335 1375.54L1316.57 990.303C1256.75 910.549 1263.2 797.37 1335.92 724.654C1415.67 644.901 1544.69 644.901 1624.44 724.654C1704.19 804.407 1704.19 933.42 1624.44 1013.17C1551.72 1085.89 1438.54 1092.34 1358.79 1032.52L973.557 1417.76C962.864 1428.45 942.994 1429.42 931.335 1417.76C919.675 1406.1 919.606 1387.26 931.335 1375.54ZM1377.56 766.289C1433.85 709.993 1525.92 710.58 1582.22 766.876C1638.51 823.172 1639.1 915.24 1582.8 971.537C1526.51 1027.83 1433.85 1027.83 1377.56 971.537C1321.26 915.24 1321.26 822.586 1377.56 766.289Z" fill="url(#paint3_linear_63_261)"/>
<path d="M864.997 1484.08C689.651 1308.73 689.651 1024.44 864.997 849.095M1499.98 1484.08C1347.43 1636.63 1112.42 1656.46 938.433 1543.58M1782.11 566.96C1957.46 742.305 1957.46 1026.6 1782.11 1201.94M1712.11 1271.95L1571.4 1412.66M1690.73 496.412C1625.36 458.262 1552.42 438.018 1479.01 435.68M1359.07 447.968C1281.4 466.672 1207.76 506.336 1147.13 566.96L944.546 769.546" stroke="url(#paint4_linear_63_261)" stroke-width="60" stroke-linecap="round" stroke-linejoin="round"/>
<path d="M961.163 924.049L1021.97 863.238M1697.26 1115.67C1825.35 987.583 1825.35 779.905 1697.26 651.813C1657.47 612.026 1610.01 584.598 1559.64 569.527M1621.25 1191.69L1416.54 1396.4C1337.9 1475.03 1229.27 1505.4 1127.47 1487.48M1446.85 556.261C1369.17 560.617 1292.74 592.468 1233.4 651.813L1093.04 792.174M900.179 1000.95C847.809 1091.92 842.649 1202.64 884.701 1297.5" stroke="url(#paint5_linear_63_261)" stroke-width="60" stroke-linecap="round" stroke-linejoin="round"/>
<path d="M1210.42 850.156L1040.36 1020.22C988.29 1072.28 970.253 1145.5 986.246 1212.21M1498.92 1138.66L1328.86 1308.71C1306.16 1331.42 1279.43 1347.65 1250.98 1357.41" stroke="url(#paint6_linear_63_261)" stroke-width="60" stroke-linecap="round" stroke-linejoin="round"/>
<path d="M317.657 2997.35C313.724 2991.98 311.551 2982.7 311.062 2969.56C310.574 2956.42 310.329 2942.69 310.329 2928.6V2683.56C310.329 2671.36 310.451 2659.29 310.696 2647.34C310.94 2635.39 311.062 2623.32 311.062 2611.14C311.551 2599.94 311.917 2587.99 312.161 2575.29C311.996 2564.41 314.371 2553.65 319.098 2543.85C324.69 2532.78 334.423 2524.37 346.184 2520.43C356.89 2516.78 367.9 2514.09 379.082 2512.4V2505.07H160.391V2512.4C171.986 2513.61 183.398 2516.18 194.389 2520.06C204.267 2523.65 212.987 2529.84 219.619 2537.99C222.911 2542.16 225.17 2547.05 226.214 2552.26C227.785 2559 228.886 2565.85 229.511 2572.75C230.244 2580.29 230.61 2588.43 230.61 2597.17V2808.56C230.61 2823.21 230.488 2837.48 230.244 2851.35C229.975 2865.25 229.755 2878.04 229.511 2889.74C229.267 2901.44 229.145 2910.72 229.145 2917.54C229.145 2925.35 229.145 2933.27 228.778 2941.33C228.412 2949.39 228.045 2957.03 227.313 2964.36C226.722 2970.75 225.744 2977.11 224.382 2983.38C223.543 2987.9 221.67 2992.15 218.911 2995.82C211.585 3004.12 202.441 3010.62 192.191 3014.82C181.279 3019.34 169.865 3022.53 158.193 3024.34V3031.67H379.815V3024.34C368.083 3023.02 356.548 3020.32 345.451 3016.28C332.75 3011.97 323.486 3005.66 317.657 2997.35Z" fill="url(#paint7_linear_63_261)"/>
<path d="M1065.24 3007.95C1060.29 3004.61 1055.74 3000.68 1051.71 2996.26C1049.69 2994.09 1047.85 2991.76 1046.22 2989.3C1042.81 2982.3 1040.7 2974.74 1039.99 2967C1038.79 2957.66 1038.19 2948.25 1038.18 2938.84C1037.68 2910.06 1037.43 2882.76 1037.45 2856.92V2711.35C1037.45 2689.39 1037.69 2666.71 1038.18 2643.33C1038.64 2626.25 1039.36 2608.93 1040.36 2591.38C1041.35 2573.83 1043.3 2560.91 1046.22 2552.62C1050.46 2541.43 1057.93 2531.76 1067.69 2524.83C1078.19 2517.03 1093.43 2512.88 1113.41 2512.4V2505.07H957.779C956.314 2508.98 950.338 2523.24 939.852 2547.86C929.366 2572.48 915.958 2603.33 899.626 2640.4C883.344 2677.44 864.936 2718.89 844.404 2764.74C823.872 2810.59 802.908 2856.67 781.513 2902.98L606.565 2505.07H450.765V2512.4C456.603 2513.37 463.685 2514.96 471.965 2517.13C480.307 2519.35 488.223 2522.94 495.388 2527.76C503.076 2533.03 509.553 2539.89 514.389 2547.86C519.763 2556.41 522.693 2567.5 523.182 2581.15C523.646 2595.29 523.915 2607.23 523.915 2616.98V2709.15C523.915 2741.83 523.67 2772.43 523.182 2800.94C522.693 2829.45 521.961 2854.2 520.984 2875.19C520.806 2896.38 519.092 2917.53 515.855 2938.47C513.619 2953.64 508.925 2968.34 501.958 2981.99C496.027 2993.26 487.189 3002.73 476.361 3009.42C465.647 3015.93 451.75 3020.93 434.67 3024.42V3031.74H625.615V3024.42C604.627 3021.49 588.166 3016.73 576.23 3010.15C564.778 3004.07 555.462 2994.63 549.535 2983.09C543.19 2969.79 539.466 2955.38 538.569 2940.67C537.103 2923.85 536.371 2903.97 536.371 2881.05V2787.41C536.371 2760.61 536.493 2735.13 536.737 2710.99C536.981 2686.84 537.226 2662.41 537.47 2637.71C537.714 2613.09 537.836 2584.69 537.836 2552.5C540.262 2557.87 544.773 2568.11 551.367 2583.22C557.961 2598.33 566.371 2617.11 576.597 2639.55C586.838 2661.97 598.301 2687.56 610.986 2716.33C623.67 2745.11 637.323 2775.95 651.944 2808.88C666.599 2841.8 681.595 2876.06 696.933 2911.65C712.271 2947.25 727.74 2983.07 743.338 3019.12H747.735C748.711 3016.19 751.129 3010.23 755.062 3001.19C758.994 2992.15 763.122 2982.19 767.518 2971.2C771.914 2960.21 776.286 2949.51 780.682 2939.03C785.079 2928.55 788.473 2920.86 790.916 2915.97C807.003 2879.91 821.755 2846.87 835.172 2816.86C848.589 2786.85 861.875 2757.48 875.032 2728.74C888.188 2699.97 901.474 2670.47 914.891 2640.23C928.308 2609.99 943.06 2576.83 959.147 2540.75V2838.62C959.147 2867.93 958.659 2898.65 957.682 2930.78C957.202 2940.45 956.224 2950.09 954.751 2959.67C953.678 2967.87 951.467 2975.87 948.181 2983.46C943.296 2993.7 933.787 3002.72 919.654 3010.52C905.521 3018.32 887.968 3022.71 866.996 3023.68V3031.72H1117.85V3024.39C1107.43 3024.13 1097.1 3022.29 1087.23 3018.92C1079.44 3016.28 1072.04 3012.59 1065.24 3007.95Z" fill="url(#paint8_linear_63_261)"/>
<path d="M1641.65 2864.22C1617.23 2906.15 1589.31 2940.78 1557.9 2968.1C1526.49 2995.42 1490.99 3011.26 1451.39 3015.63C1437.24 3017.09 1423.71 3018.07 1410.8 3018.56C1397.88 3019.05 1387.3 3019.29 1379.05 3019.29H1319.74C1300.2 3019.29 1278.22 3019.05 1253.8 3018.56L1623.28 2510.93L1621.09 2506.54H1387.03C1358.26 2506.54 1331.44 2506.41 1306.58 2506.17C1281.72 2505.93 1260.26 2505.68 1242.2 2505.44C1224.14 2505.19 1211.71 2504.83 1204.9 2504.34L1151.49 2660.14L1159.55 2663.07C1165.74 2653.1 1172.45 2643.45 1179.65 2634.18C1187.71 2623.71 1196.13 2613.34 1204.9 2603.08C1213.68 2592.83 1222.33 2583.44 1230.87 2574.92C1239.4 2566.39 1246.59 2559.69 1252.43 2554.82C1264.81 2544.96 1278.47 2536.83 1293.05 2530.67C1308.97 2524.1 1325.93 2520.39 1343.14 2519.7C1352.41 2519.24 1364.96 2518.88 1380.8 2518.6C1396.65 2518.32 1413.35 2518.2 1430.92 2518.24H1523.07L1152.95 3026.62L1155.88 3031.72H1596.95L1649.61 2867.08L1641.65 2864.22Z" fill="url(#paint9_linear_63_261)"/>
<path d="M2157.97 3016.97C2150.38 3013.54 2143.36 3008.97 2137.14 3003.44C2132.08 2998.96 2127.54 2993.93 2123.61 2988.44C2121.2 2985.17 2118.99 2981.75 2117.01 2978.21C2111.18 2965.52 2105.94 2954.18 2101.28 2944.18C2096.63 2934.19 2091.63 2921.63 2086.29 2906.52C2074.59 2875.8 2062.9 2844.71 2051.19 2813.27C2039.48 2781.83 2027.41 2749.27 2014.97 2715.58C2002.53 2681.95 1989.5 2646.95 1975.89 2610.55C1962.28 2574.16 1947.89 2535.76 1932.73 2495.35H1926.9C1924.94 2498.77 1922.13 2503.16 1918.47 2508.51C1914.37 2514.44 1909.84 2520.06 1904.94 2525.34C1899.23 2531.49 1892.99 2537.12 1886.28 2542.17C1878.93 2547.71 1870.95 2552.37 1862.51 2556.07L1869.84 2572.16C1858.12 2599.47 1845.68 2628.84 1832.52 2660.28C1819.37 2691.72 1806.08 2722.94 1792.66 2753.92L1753.58 2844.29C1740.88 2873.6 1729.42 2899.65 1719.2 2922.45C1710.77 2941.83 1701.18 2960.7 1690.5 2978.94C1682.71 2991.62 1677.11 2999.67 1673.67 3003.07C1672.22 3005.02 1666.98 3008.69 1657.94 3014.06C1647.94 3019.73 1636.85 3023.22 1625.41 3024.29V3032.33H1781.21V3025C1774.86 3024.03 1768.15 3022.93 1761.08 3021.71C1754.29 3020.57 1747.66 3018.6 1741.35 3015.84C1735.7 3013.5 1730.6 3010.01 1726.35 3005.61C1722.39 3001.35 1720.29 2995.69 1720.49 2989.88C1720.49 2979.15 1725.61 2960.62 1735.85 2934.29C1742.66 2917.21 1749.49 2900.27 1756.34 2883.47C1763.2 2866.66 1770.27 2848.98 1777.54 2830.42H1972.1C1979.43 2849.44 1986.26 2867.73 1992.6 2885.3C1998.93 2902.87 2004.54 2918.83 2009.42 2933.19C2014.31 2947.57 2018.09 2959.78 2020.76 2969.83C2022.92 2976.84 2024.28 2984.08 2024.79 2991.4C2024.89 2994.53 2024.32 2997.66 2023.12 3000.56C2021.92 3003.46 2020.11 3006.07 2017.83 3008.22C2013.17 3012.64 2007.7 3016.11 2001.73 3018.46C1992.72 3022.03 1983.23 3024.25 1973.57 3025.05V3032.38H2187.16V3023.61C2177.08 3023.35 2167.16 3021.1 2157.97 3016.97ZM1784.29 2815.08C1795.98 2786.34 1806.82 2759.65 1816.82 2734.99C1826.82 2710.34 1835.96 2688.28 1844.25 2668.81C1852.55 2649.27 1859.5 2632.68 1865.1 2619.05C1870.7 2605.43 1874.97 2595.43 1877.9 2589.06C1882.3 2599.81 1887.79 2613.58 1894.36 2630.39C1900.94 2647.19 1908.27 2665.73 1916.34 2686C1924.49 2706.22 1932.78 2727.31 1941.23 2749.26C1949.68 2771.21 1958.09 2793.19 1966.46 2815.2L1784.29 2815.08Z" fill="url(#paint10_linear_63_261)"/>
<defs>
<linearGradient id="paint0_linear_63_261" x1="-2366.64" y1="-3220.32" x2="-3846.01" y2="-1740.94" gradientUnits="userSpaceOnUse">
<stop stop-color="#BA55FF"/>
<stop offset="1" stop-color="#35029C"/>
</linearGradient>
<linearGradient id="paint1_linear_63_261" x1="1304.05" y1="1422.82" x2="1092.25" y2="1634.63" gradientUnits="userSpaceOnUse">
<stop stop-color="#BA55FF"/>
<stop offset="1" stop-color="#35029C"/>
</linearGradient>
<linearGradient id="paint2_linear_63_261" x1="1318.81" y1="1475.57" x2="1162.54" y2="1631.84" gradientUnits="userSpaceOnUse">
<stop stop-color="#BA55FF"/>
<stop offset="1" stop-color="#35029C"/>
</linearGradient>
<linearGradient id="paint3_linear_63_261" x1="2666.68" y1="1707.4" x2="1632.89" y2="2741.18" gradientUnits="userSpaceOnUse">
<stop stop-color="#BA55FF"/>
<stop offset="1" stop-color="#35029C"/>
</linearGradient>
<linearGradient id="paint4_linear_63_261" x1="2345.58" y1="1150.15" x2="1290.64" y2="2205.09" gradientUnits="userSpaceOnUse">
<stop stop-color="#64EBEC"/>
<stop offset="1" stop-color="#3B31BC"/>
</linearGradient>
<linearGradient id="paint5_linear_63_261" x1="2108.25" y1="1078.48" x2="1269.55" y2="1917.17" gradientUnits="userSpaceOnUse">
<stop stop-color="#64EBEC"/>
<stop offset="1" stop-color="#3B31BC"/>
</linearGradient>
<linearGradient id="paint6_linear_63_261" x1="1612" y1="1258.04" x2="1274.84" y2="1595.21" gradientUnits="userSpaceOnUse">
<stop stop-color="#64EBEC"/>
<stop offset="1" stop-color="#3B31BC"/>
</linearGradient>
<linearGradient id="paint7_linear_63_261" x1="1046.73" y1="2482.47" x2="1046.73" y2="3267.91" gradientUnits="userSpaceOnUse">
<stop stop-color="#BA55FF"/>
<stop offset="1" stop-color="#35029C"/>
</linearGradient>
<linearGradient id="paint8_linear_63_261" x1="3173.73" y1="2482.46" x2="3173.73" y2="3268.02" gradientUnits="userSpaceOnUse">
<stop stop-color="#BA55FF"/>
<stop offset="1" stop-color="#35029C"/>
</linearGradient>
<linearGradient id="paint9_linear_63_261" x1="3148.6" y1="2481.7" x2="3148.6" y2="3268.31" gradientUnits="userSpaceOnUse">
<stop stop-color="#BA55FF"/>
<stop offset="1" stop-color="#35029C"/>
</linearGradient>
<linearGradient id="paint10_linear_63_261" x1="3877.61" y1="2472.3" x2="3877.61" y2="3273.3" gradientUnits="userSpaceOnUse">
<stop stop-color="#BA55FF"/>
<stop offset="1" stop-color="#35029C"/>
</linearGradient>
</defs>
</svg>
