<svg width="2388" height="2388" viewBox="0 0 2388 2388" fill="none" xmlns="http://www.w3.org/2000/svg">
<path fill-rule="evenodd" clip-rule="evenodd" d="M1425.01 938.854L1113.63 1250.24C1102.5 1261.36 1102.5 1279.15 1113.63 1290.28C1164.78 1341.43 1237.63 1362.01 1308.24 1345.88C1322.7 1342.54 1332.71 1326.98 1329.38 1312.52C1326.04 1296.95 1310.47 1288.05 1295.46 1290.83C1253.2 1300.84 1210.38 1292.5 1175.35 1268.59L1227.62 1216.32C1282.67 1256.91 1352.73 1264.7 1421.68 1235.78C1435.58 1229.67 1442.81 1213.54 1436.69 1198.53C1430.58 1184.62 1413.9 1177.95 1399.99 1184.07C1352.17 1204.09 1305.46 1200.75 1268.21 1175.73L1465.05 978.89C1540.67 1035.61 1647.99 1029.49 1716.94 960.54C1792.56 884.916 1792.56 762.584 1716.94 686.96C1641.32 611.336 1518.98 611.336 1443.36 686.96C1374.41 755.911 1368.29 863.23 1425.01 938.854ZM1482.84 726.44C1536.22 673.058 1623.52 673.615 1676.9 726.996C1730.29 780.377 1730.84 867.678 1677.46 921.06C1624.08 974.441 1536.22 974.441 1482.84 921.06C1429.46 867.678 1429.46 779.821 1482.84 726.44Z" fill="url(#paint0_linear_54_256)"/>
<g style="mix-blend-mode:overlay" opacity="0.4">
<path d="M1443.36 831.535C1424.45 821.526 1406.1 811.331 1388.31 800.952C1392.76 759.803 1411.11 719.211 1443.36 686.96C1518.98 611.336 1641.32 611.336 1716.94 686.96C1792.56 762.584 1792.56 884.916 1716.94 960.54C1714.35 963.135 1711.57 965.544 1708.6 967.769C1690.44 958.501 1672.09 949.048 1653.55 939.41C1661.71 934.22 1669.68 928.103 1677.46 921.06C1730.84 867.678 1730.29 780.377 1676.9 726.996C1623.52 673.615 1536.22 673.058 1482.84 726.44C1453.93 755.355 1441.14 793.723 1443.36 831.535Z" fill="white"/>
</g>
<path fill-rule="evenodd" clip-rule="evenodd" d="M1340.48 1438.2C1348.27 1445.99 1359.94 1448.77 1370.51 1444.87C1415.55 1428.75 1455.03 1403.73 1488.95 1369.81L1674.67 1184.08C1685.79 1172.96 1685.79 1155.17 1674.67 1144.05C1665.43 1134.81 1647.01 1131.67 1634.64 1144.05C1634.64 1144.05 1541.27 1237.41 1533.15 1245.53L1448.91 1329.77C1421.11 1357.57 1387.75 1378.7 1351.05 1392.05C1337.14 1397.05 1328.8 1413.18 1334.36 1427.64C1335.85 1432.08 1337.89 1435.61 1340.48 1438.2ZM1034.09 1369.81C1099.71 1435.42 1190.35 1469.34 1282.65 1462.67C1298.22 1461.55 1309.9 1448.77 1308.79 1433.2C1307.67 1417.63 1294.88 1405.95 1279.31 1407.06C1202.58 1411.51 1128.07 1383.71 1074.13 1329.77C1014.63 1270.27 986.829 1184.64 999.618 1101.79C1001.84 1086.22 991.833 1071.76 976.264 1069.53C960.694 1067.31 946.237 1077.32 944.013 1092.89C928.443 1194.09 961.807 1297.52 1034.09 1369.81ZM981.825 1026.16C983.678 1028.02 985.902 1029.87 988.497 1031.72C1002.4 1038.95 1019.08 1033.39 1026.31 1019.49C1039.1 995.579 1054.67 974.449 1074.13 954.987L1331.67 697.446C1342.24 686.881 1342.24 669.087 1331.12 657.966C1319.99 646.845 1302.2 646.845 1291.63 657.41L1034.09 914.951C1010.74 938.305 991.834 964.996 976.82 993.355C970.703 1005.03 973.484 1017.82 981.825 1026.16ZM1353.26 636.929C1363.83 647.494 1380.51 647.494 1391.63 637.485C1496.73 543.511 1656.87 546.848 1756.96 646.938C1822.02 711.997 1848.15 804.858 1827.58 895.496C1823.69 910.509 1833.14 925.523 1848.15 929.415C1863.72 932.751 1878.74 923.298 1882.07 907.729C1907.65 798.742 1875.4 686.418 1796.44 607.458C1675.22 486.238 1481.16 481.233 1354.38 595.781C1342.7 606.346 1341.59 624.14 1352.15 635.817C1352.52 636.187 1352.89 636.558 1353.26 636.929ZM1729.16 1089.55C1740.29 1100.67 1758.08 1100.67 1768.64 1090.11L1816.74 1042.02C1827.86 1030.89 1827.86 1013.1 1816.74 1001.98C1805.62 990.858 1787.82 990.858 1776.7 1001.98L1728.61 1050.07C1718.04 1060.64 1718.04 1078.43 1729.16 1089.55ZM1066.35 1207.44C1073.02 1214.11 1083.58 1216.89 1093.04 1214.11C1108.61 1210.77 1117.5 1195.2 1113.61 1180.19C1100.26 1127.92 1115.83 1072.32 1153.65 1034.5L1321.66 866.489C1332.23 855.924 1332.23 838.131 1321.1 827.009C1309.98 815.888 1292.19 815.888 1281.62 826.453L1113.61 994.468C1061.9 1046.18 1040.77 1122.92 1058.56 1194.09C1060.23 1199.1 1062.45 1203.54 1066.35 1207.44ZM1485.06 1174.63C1496.18 1185.75 1513.97 1185.75 1525.09 1174.63L1584.21 1115.51C1594.78 1104.94 1594.78 1087.15 1583.66 1076.03C1572.53 1064.91 1554.74 1064.91 1544.18 1075.47L1485.06 1134.59C1473.93 1145.71 1473.93 1163.51 1485.06 1174.63ZM1305.44 530.166C1315.45 540.175 1331.02 541.287 1342.14 532.39C1491.72 420.623 1704.14 435.08 1836.48 567.422C1884.85 615.799 1919.33 676.965 1936.01 743.692C1939.9 758.705 1954.92 768.158 1969.93 764.266C1984.94 760.374 1994.4 745.36 1990.51 730.347C1971.6 653.611 1932.12 584.104 1875.96 527.942C1724.15 376.138 1480.05 358.901 1308.78 487.906C1295.99 497.359 1293.21 514.597 1302.66 527.386C1303.78 528.498 1304.7 529.425 1305.44 530.166ZM1696.24 1281.51C1707.36 1292.63 1725.15 1292.63 1736.27 1281.51L1887.46 1130.33C1963.08 1054.7 2007.57 954.613 2014.24 847.85C2014.24 832.281 2003.12 818.935 1987.55 817.823C1971.42 817.267 1958.63 828.944 1957.52 844.514C1952.52 937.375 1913.04 1024.68 1847.42 1090.29L1696.24 1241.48C1685.12 1252.6 1685.12 1270.39 1696.24 1281.51ZM1010.74 1496.59C1011.85 1497.7 1013.15 1498.63 1014.63 1499.37C1187.57 1618.92 1420 1597.79 1568.46 1449.32L1666.33 1351.46C1677.45 1340.33 1677.45 1322.54 1666.33 1311.42C1655.21 1300.3 1637.42 1300.3 1626.29 1311.42L1528.43 1409.29C1399.42 1538.29 1197.02 1557.2 1046.88 1453.77C1034.09 1444.32 1016.3 1447.65 1007.96 1460.44C999.618 1472.12 1001.29 1487.13 1010.74 1496.59ZM932.336 1424.86C942.345 1434.86 959.026 1435.98 970.703 1426.52C981.824 1416.51 983.493 1398.16 973.484 1387.04C846.703 1238.02 856.156 1013.93 994.614 875.471C1005.73 864.35 1005.73 846.556 994.614 835.435C983.493 824.314 965.699 824.314 954.578 835.435C795.545 994.467 785.537 1252.48 930.667 1423.19C931.038 1423.56 931.594 1424.11 932.336 1424.86ZM1012.96 817.085C1024.08 828.206 1041.88 828.206 1053 817.085L1280.14 589.941C1290.71 579.376 1290.71 561.582 1279.59 550.461C1268.47 539.34 1250.67 539.34 1240.11 549.905L1012.96 777.049C1001.84 788.17 1001.84 805.964 1012.96 817.085Z" fill="url(#paint1_linear_54_256)"/>
<path d="M1773.95 1345.26C1775.47 1677.29 1550.19 1979.42 1213.49 2061.68C819.347 2157.99 421.757 1916.54 325.453 1522.39C229.149 1128.24 470.599 730.654 864.747 634.349C938.177 616.408 1011.73 610.189 1083.43 614.496L908.164 789.758C711.926 985.997 711.926 1304.16 908.164 1500.4C1104.4 1696.64 1422.57 1696.64 1618.81 1500.4L1773.95 1345.26Z" fill="url(#paint2_linear_54_256)"/>
<defs>
<linearGradient id="paint0_linear_54_256" x1="782.771" y1="-299" x2="-117.094" y2="600.865" gradientUnits="userSpaceOnUse">
<stop stop-color="#BA55FF"/>
<stop offset="1" stop-color="#35029C"/>
</linearGradient>
<linearGradient id="paint1_linear_54_256" x1="1169.65" y1="-1023.04" x2="-763.282" y2="909.89" gradientUnits="userSpaceOnUse">
<stop stop-color="#64EBEC"/>
<stop offset="1" stop-color="#3B31BC"/>
</linearGradient>
<linearGradient id="paint2_linear_54_256" x1="-2179.52" y1="-2726.44" x2="-3534.54" y2="-1371.42" gradientUnits="userSpaceOnUse">
<stop stop-color="#BA55FF"/>
<stop offset="1" stop-color="#35029C"/>
</linearGradient>
</defs>
</svg>
