<svg width="2435" height="2972" viewBox="0 0 2435 2972" fill="none" xmlns="http://www.w3.org/2000/svg">
<path d="M1145.48 522.339C778.836 510.197 441.33 755.523 350.804 1126.02C246.998 1550.87 507.256 1979.44 932.106 2083.24C1356.96 2187.05 1785.52 1926.79 1889.32 1501.94C1906.84 1430.23 1913.99 1358.42 1911.73 1288.08L1657.79 1542.03C1446.26 1753.55 1103.31 1753.55 891.788 1542.03C680.263 1330.5 680.263 987.552 891.788 776.027L1145.48 522.339Z" fill="url(#paint0_linear_63_284)"/>
<path d="M956.832 1477.09C781.487 1301.74 781.487 1017.45 956.832 842.105M1591.81 1477.09C1439.27 1629.64 1204.26 1649.47 1030.27 1536.59M1873.95 559.969C2049.3 735.315 2049.3 1019.61 1873.95 1194.95M1803.95 1264.95L1663.23 1405.67M1782.57 489.422C1717.2 451.272 1644.25 431.028 1570.84 428.689M1450.9 440.978C1373.24 459.682 1299.59 499.346 1238.97 559.969L1036.38 762.556" stroke="url(#paint1_linear_63_284)" stroke-width="60" stroke-linecap="round" stroke-linejoin="round"/>
<path d="M1053 917.058L1113.81 856.247M1789.1 1108.68C1917.19 980.592 1917.19 772.914 1789.1 644.822C1749.31 605.035 1701.85 577.607 1651.47 562.536M1713.08 1184.7L1508.38 1389.41C1447.62 1450.16 1368.96 1482.1 1289.38 1485.22M1538.69 549.27C1461.01 553.626 1384.58 585.477 1325.24 644.822L1184.87 785.182M992.014 993.959C939.644 1084.93 934.485 1195.65 976.537 1290.5" stroke="url(#paint2_linear_63_284)" stroke-width="60" stroke-linecap="round" stroke-linejoin="round"/>
<path d="M1245.69 899.734L1132.19 1013.23C1080.13 1065.29 1062.09 1138.51 1078.08 1205.22M1534.19 1188.23L1420.69 1301.72C1397.99 1324.43 1371.27 1340.66 1342.82 1350.42" stroke="url(#paint3_linear_63_284)" stroke-width="60" stroke-linecap="round" stroke-linejoin="round"/>
<g style="mix-blend-mode:overlay" opacity="0.4">
<path d="M1401.63 896.281C1381.71 885.73 1362.36 874.984 1343.61 864.043C1348.29 820.667 1367.64 777.878 1401.63 743.881C1481.35 664.164 1610.3 664.164 1690.02 743.881C1769.74 823.598 1769.74 952.552 1690.02 1032.27C1687.29 1035 1684.36 1037.54 1681.23 1039.89C1662.08 1030.12 1642.74 1020.15 1623.2 1009.99C1631.8 1004.52 1640.2 998.076 1648.41 990.652C1704.68 934.381 1704.09 842.355 1647.82 786.084C1591.55 729.813 1499.52 729.227 1443.25 785.498C1412.77 815.978 1399.29 856.422 1401.63 896.281Z" fill="white"/>
</g>
<path d="M1067.81 1384.27L1172.04 1488.51C1183.77 1500.23 1202.59 1500.16 1214.25 1488.51C1225.9 1476.86 1224.94 1457 1214.25 1446.31L1110.01 1342.07L1067.81 1384.27Z" fill="url(#paint4_linear_63_284)"/>
<path d="M1127.09 1276.7L1217.18 1366.79C1228.9 1378.52 1247.73 1378.45 1259.38 1366.79C1271.04 1355.14 1270.07 1335.28 1259.38 1324.59L1169.29 1234.49L1127.09 1276.7Z" fill="url(#paint5_linear_63_284)"/>
<path fill-rule="evenodd" clip-rule="evenodd" d="M1022.77 1368.93L1382.29 1009.41C1322.5 929.692 1328.95 816.564 1401.63 743.881C1481.35 664.164 1610.3 664.164 1690.02 743.881C1769.74 823.598 1769.74 952.552 1690.02 1032.27C1617.34 1104.95 1504.21 1111.4 1424.49 1051.61L1064.97 1411.13C1054.29 1421.82 1034.43 1422.79 1022.77 1411.13C1011.12 1399.48 1011.05 1380.65 1022.77 1368.93ZM1443.25 785.498C1499.52 729.227 1591.55 729.813 1647.82 786.084C1704.09 842.355 1704.68 934.381 1648.4 990.652C1592.13 1046.92 1499.52 1046.92 1443.25 990.652C1386.98 934.381 1386.98 841.769 1443.25 785.498Z" fill="url(#paint6_linear_63_284)"/>
<path d="M362.004 2936.05C358.072 2930.68 355.898 2921.4 355.41 2908.26C354.921 2895.12 354.677 2881.39 354.677 2867.3V2622.25C354.677 2610.06 354.799 2597.99 355.043 2586.03C355.288 2574.08 355.41 2562.02 355.41 2549.84C355.898 2538.64 356.265 2526.68 356.509 2513.98C356.344 2503.11 358.719 2492.35 363.445 2482.55C369.037 2471.48 378.77 2463.06 390.531 2459.13C401.238 2455.48 412.248 2452.79 423.43 2451.09V2443.77H204.739V2451.09C216.334 2452.3 227.745 2454.88 238.737 2458.76C248.614 2462.34 257.334 2468.54 263.967 2476.69C267.258 2480.86 269.518 2485.74 270.561 2490.95C272.132 2497.7 273.234 2504.55 273.859 2511.44C274.591 2518.98 274.958 2527.12 274.958 2535.87V2747.26C274.958 2761.91 274.836 2776.17 274.591 2790.05C274.323 2803.94 274.103 2816.74 273.859 2828.44C273.614 2840.14 273.492 2849.42 273.492 2856.24C273.492 2864.05 273.492 2871.96 273.126 2880.02C272.76 2888.08 272.393 2895.73 271.66 2903.06C271.07 2909.45 270.091 2915.8 268.73 2922.08C267.891 2926.59 266.018 2930.85 263.259 2934.51C255.933 2942.82 246.789 2949.32 236.539 2953.52C225.626 2958.03 214.213 2961.23 202.541 2963.04V2970.37H424.163V2963.04C412.43 2961.72 400.895 2959.01 389.798 2954.98C377.098 2950.67 367.833 2944.36 362.004 2936.05Z" fill="url(#paint7_linear_63_284)"/>
<path d="M1109.59 2946.65C1104.63 2943.3 1100.09 2939.38 1096.06 2934.95C1094.04 2932.79 1092.2 2930.46 1090.57 2927.99C1087.16 2921 1085.05 2913.44 1084.34 2905.69C1083.14 2896.35 1082.53 2886.95 1082.53 2877.53C1082.03 2848.76 1081.78 2821.46 1081.8 2795.62V2650.05C1081.8 2628.08 1082.04 2605.41 1082.53 2582.03C1082.99 2564.95 1083.71 2547.63 1084.7 2530.08C1085.7 2512.53 1087.65 2499.61 1090.57 2491.32C1094.8 2480.13 1102.28 2470.45 1112.03 2463.52C1122.54 2455.73 1137.78 2451.58 1157.76 2451.09V2443.77H1002.13C1000.66 2447.67 994.686 2461.94 984.2 2486.56C973.714 2511.18 960.305 2542.02 943.974 2579.1C927.691 2616.14 909.284 2657.59 888.752 2703.44C868.219 2749.29 847.256 2795.37 825.86 2841.68L650.912 2443.77H495.113V2451.09C500.95 2452.07 508.033 2453.66 516.313 2455.83C524.655 2458.05 532.57 2461.64 539.735 2466.46C547.423 2471.73 553.901 2478.58 558.737 2486.56C564.11 2495.1 567.041 2506.2 567.53 2519.85C567.994 2533.99 568.262 2545.93 568.262 2555.68V2647.85C568.262 2680.53 568.018 2711.13 567.53 2739.64C567.041 2768.15 566.308 2792.9 565.331 2813.88C565.154 2835.07 563.439 2856.22 560.202 2877.17C557.967 2892.33 553.273 2907.03 546.305 2920.69C540.375 2931.95 531.537 2941.42 520.709 2948.12C509.995 2954.63 496.098 2959.63 479.018 2963.11V2970.44H669.963V2963.11C648.975 2960.18 632.513 2955.43 620.578 2948.85C609.125 2942.77 599.809 2933.32 593.883 2921.79C587.537 2908.48 583.814 2894.08 582.916 2879.36C581.451 2862.54 580.718 2842.67 580.718 2819.75V2726.11C580.718 2699.3 580.84 2673.83 581.085 2649.68C581.329 2625.54 581.573 2601.11 581.817 2576.41C582.062 2551.79 582.184 2523.39 582.184 2491.2C584.61 2496.57 589.12 2506.81 595.715 2521.92C602.309 2537.03 610.719 2555.81 620.944 2578.24C631.186 2600.66 642.649 2626.26 655.333 2655.03C668.017 2683.8 681.67 2714.65 696.292 2747.57C710.946 2780.5 725.942 2814.76 741.281 2850.35C756.619 2885.94 772.087 2921.76 787.686 2957.81H792.082C793.059 2954.88 795.477 2948.92 799.409 2939.89C803.342 2930.85 807.469 2920.89 811.866 2909.89C816.262 2898.9 820.634 2888.21 825.03 2877.73C829.426 2867.25 832.821 2859.56 835.263 2854.67C851.351 2818.61 866.103 2785.57 879.519 2755.56C892.936 2725.55 906.223 2696.18 919.379 2667.44C932.535 2638.67 945.822 2609.16 959.239 2578.93C972.656 2548.69 987.408 2515.53 1003.49 2479.45V2777.32C1003.49 2806.63 1003.01 2837.35 1002.03 2869.47C1001.55 2879.15 1000.57 2888.79 999.099 2898.37C998.026 2906.56 995.815 2914.57 992.529 2922.16C987.644 2932.4 978.135 2941.42 964.002 2949.22C949.868 2957.02 932.316 2961.4 911.344 2962.38V2970.42H1162.2V2963.09C1151.77 2962.83 1141.45 2960.98 1131.57 2957.62C1123.78 2954.97 1116.39 2951.29 1109.59 2946.65Z" fill="url(#paint8_linear_63_284)"/>
<path d="M1686 2802.92C1661.57 2844.85 1633.66 2879.47 1602.25 2906.79C1570.84 2934.12 1535.34 2949.96 1495.74 2954.32C1481.59 2955.79 1468.06 2956.77 1455.14 2957.25C1442.23 2957.74 1431.65 2957.99 1423.39 2957.99H1364.09C1344.55 2957.99 1322.57 2957.74 1298.15 2957.25L1667.63 2449.63L1665.43 2445.23H1431.38C1402.61 2445.23 1375.79 2445.11 1350.93 2444.87C1326.06 2444.62 1304.6 2444.38 1286.55 2444.13C1268.49 2443.89 1256.06 2443.52 1249.25 2443.04L1195.84 2598.83L1203.9 2601.77C1210.09 2591.79 1216.8 2582.15 1224 2572.87C1232.06 2562.4 1240.47 2552.04 1249.25 2541.78C1258.03 2531.52 1266.68 2522.14 1275.21 2513.62C1283.75 2505.09 1290.93 2498.39 1296.78 2493.52C1309.16 2483.66 1322.82 2475.53 1337.4 2469.36C1353.32 2462.8 1370.28 2459.08 1387.49 2458.4C1396.75 2457.94 1409.31 2457.58 1425.15 2457.3C1440.99 2457.02 1457.7 2456.9 1475.27 2456.93H1567.42L1197.3 2965.31L1200.23 2970.42H1641.3L1693.96 2805.78L1686 2802.92Z" fill="url(#paint9_linear_63_284)"/>
<path d="M2202.32 2955.66C2194.73 2952.23 2187.7 2947.67 2181.48 2942.13C2176.43 2937.66 2171.89 2932.63 2167.95 2927.14C2165.54 2923.87 2163.34 2920.45 2161.36 2916.9C2155.53 2904.22 2150.29 2892.88 2145.63 2882.88C2140.97 2872.88 2135.97 2860.33 2130.63 2845.22C2118.94 2814.49 2107.24 2783.41 2095.54 2751.97C2083.83 2720.53 2071.76 2687.96 2059.32 2654.27C2046.88 2620.65 2033.85 2585.64 2020.24 2549.25C2006.63 2512.86 1992.24 2474.46 1977.08 2434.04H1971.24C1969.29 2437.46 1966.48 2441.85 1962.82 2447.21C1958.71 2453.13 1954.19 2458.76 1949.29 2464.04C1943.58 2470.19 1937.33 2475.82 1930.63 2480.87C1923.27 2486.41 1915.3 2491.07 1906.86 2494.76L1914.19 2510.86C1902.47 2538.16 1890.03 2567.54 1876.87 2598.98C1863.71 2630.42 1850.43 2661.63 1837.01 2692.62L1797.93 2782.99C1785.23 2812.3 1773.77 2838.35 1763.54 2861.14C1755.11 2880.53 1745.53 2899.4 1734.85 2917.64C1727.06 2930.32 1721.45 2938.36 1718.02 2941.77C1716.57 2943.72 1711.33 2947.38 1702.29 2952.76C1692.29 2958.43 1681.2 2961.92 1669.76 2962.99V2971.03H1825.56V2963.7C1819.21 2962.72 1812.5 2961.62 1805.43 2960.4C1798.64 2959.26 1792.01 2957.29 1785.7 2954.54C1780.05 2952.19 1774.94 2948.71 1770.7 2944.31C1766.74 2940.05 1764.63 2934.39 1764.84 2928.58C1764.84 2917.85 1769.96 2899.32 1780.2 2872.99C1787.01 2855.91 1793.84 2838.97 1800.69 2822.16C1807.55 2805.36 1814.61 2787.68 1821.89 2769.12H2016.45C2023.78 2788.13 2030.61 2806.43 2036.94 2824C2043.28 2841.56 2048.89 2857.53 2053.77 2871.89C2058.66 2886.27 2062.43 2898.48 2065.1 2908.53C2067.27 2915.54 2068.62 2922.77 2069.13 2930.09C2069.23 2933.23 2068.66 2936.35 2067.46 2939.26C2066.26 2942.16 2064.46 2944.77 2062.17 2946.92C2057.52 2951.34 2052.05 2954.81 2046.08 2957.15C2037.07 2960.73 2027.58 2962.95 2017.92 2963.75V2971.08H2231.5V2962.31C2221.43 2962.05 2211.51 2959.79 2202.32 2955.66ZM1828.63 2753.78C1840.32 2725.04 1851.17 2698.34 1861.17 2673.69C1871.16 2649.04 1880.31 2626.98 1888.59 2607.5C1896.9 2587.96 1903.85 2571.38 1909.45 2557.75C1915.05 2544.12 1919.32 2534.13 1922.25 2527.76C1926.65 2538.51 1932.13 2552.28 1938.71 2569.08C1945.29 2585.89 1952.62 2604.43 1960.69 2624.7C1968.83 2644.92 1977.13 2666.01 1985.58 2687.96C1994.03 2709.9 2002.44 2731.89 2010.81 2753.9L1828.63 2753.78Z" fill="url(#paint10_linear_63_284)"/>
<defs>
<linearGradient id="paint0_linear_63_284" x1="5501.04" y1="4794.22" x2="4056.01" y2="6239.24" gradientUnits="userSpaceOnUse">
<stop stop-color="#BA55FF"/>
<stop offset="1" stop-color="#35029C"/>
</linearGradient>
<linearGradient id="paint1_linear_63_284" x1="2437.42" y1="1143.16" x2="1382.48" y2="2198.1" gradientUnits="userSpaceOnUse">
<stop stop-color="#64EBEC"/>
<stop offset="1" stop-color="#3B31BC"/>
</linearGradient>
<linearGradient id="paint2_linear_63_284" x1="2200.08" y1="1071.48" x2="1361.39" y2="1910.18" gradientUnits="userSpaceOnUse">
<stop stop-color="#64EBEC"/>
<stop offset="1" stop-color="#3B31BC"/>
</linearGradient>
<linearGradient id="paint3_linear_63_284" x1="1647.88" y1="1307.01" x2="1375.79" y2="1579.11" gradientUnits="userSpaceOnUse">
<stop stop-color="#64EBEC"/>
<stop offset="1" stop-color="#3B31BC"/>
</linearGradient>
<linearGradient id="paint4_linear_63_284" x1="1231.63" y1="1209.69" x2="1418.58" y2="1396.64" gradientUnits="userSpaceOnUse">
<stop stop-color="#BA55FF"/>
<stop offset="1" stop-color="#35029C"/>
</linearGradient>
<linearGradient id="paint5_linear_63_284" x1="1291.52" y1="1102.72" x2="1457.37" y2="1268.57" gradientUnits="userSpaceOnUse">
<stop stop-color="#BA55FF"/>
<stop offset="1" stop-color="#35029C"/>
</linearGradient>
<linearGradient id="paint6_linear_63_284" x1="2730.69" y1="1727.27" x2="1735.46" y2="2722.5" gradientUnits="userSpaceOnUse">
<stop stop-color="#BA55FF"/>
<stop offset="1" stop-color="#35029C"/>
</linearGradient>
<linearGradient id="paint7_linear_63_284" x1="1091.08" y1="2421.16" x2="1091.08" y2="3206.61" gradientUnits="userSpaceOnUse">
<stop stop-color="#BA55FF"/>
<stop offset="1" stop-color="#35029C"/>
</linearGradient>
<linearGradient id="paint8_linear_63_284" x1="3218.08" y1="2421.16" x2="3218.08" y2="3206.71" gradientUnits="userSpaceOnUse">
<stop stop-color="#BA55FF"/>
<stop offset="1" stop-color="#35029C"/>
</linearGradient>
<linearGradient id="paint9_linear_63_284" x1="3192.95" y1="2420.4" x2="3192.95" y2="3207.01" gradientUnits="userSpaceOnUse">
<stop stop-color="#BA55FF"/>
<stop offset="1" stop-color="#35029C"/>
</linearGradient>
<linearGradient id="paint10_linear_63_284" x1="3921.95" y1="2410.99" x2="3921.95" y2="3211.99" gradientUnits="userSpaceOnUse">
<stop stop-color="#BA55FF"/>
<stop offset="1" stop-color="#35029C"/>
</linearGradient>
</defs>
</svg>
