<svg width="2346" height="2346" viewBox="0 0 2346 2346" fill="none" xmlns="http://www.w3.org/2000/svg">
<path d="M1927.44 1159.66C1902.97 1204.56 1871.74 1246.76 1833.75 1284.76L1565.34 1553.17C1351.9 1766.6 1005.85 1766.6 792.413 1553.17C578.976 1339.73 578.976 993.678 792.413 780.24L1060.82 511.831C1098.96 473.697 1141.32 442.376 1186.41 417.869C1105.89 412.211 1023.14 418.754 940.535 438.938C511.842 543.683 249.23 976.119 353.975 1404.81C458.72 1833.5 891.156 2096.12 1319.85 1991.37C1703.73 1897.57 1954.44 1541.01 1927.44 1159.66Z" fill="url(#paint0_linear_63_163)"/>
<path d="M1129.01 1259.97L987.007 1401.97V1401.97C1010.28 1425.25 1048.01 1425.25 1071.29 1401.97L1129.01 1344.25C1152.28 1320.98 1152.28 1283.24 1129.01 1259.97V1259.97Z" fill="url(#paint1_linear_63_163)"/>
<path d="M1145.37 1311.12L1040.6 1415.89V1415.89C1063.87 1439.16 1101.6 1439.16 1124.88 1415.89L1145.37 1395.4C1168.64 1372.12 1168.64 1334.39 1145.37 1311.12V1311.12Z" fill="url(#paint2_linear_63_163)"/>
<path fill-rule="evenodd" clip-rule="evenodd" d="M931.335 1375.54L1316.57 990.303C1256.75 910.549 1263.2 797.37 1335.92 724.654C1415.67 644.901 1544.69 644.901 1624.44 724.654C1704.19 804.407 1704.19 933.42 1624.44 1013.17C1551.72 1085.89 1438.54 1092.34 1358.79 1032.52L973.557 1417.76C962.864 1428.45 942.994 1429.42 931.335 1417.76C919.675 1406.1 919.606 1387.26 931.335 1375.54ZM1377.56 766.289C1433.85 709.993 1525.92 710.58 1582.22 766.876C1638.51 823.172 1639.1 915.24 1582.8 971.537C1526.51 1027.83 1433.85 1027.83 1377.56 971.537C1321.26 915.24 1321.26 822.586 1377.56 766.289Z" fill="url(#paint3_linear_63_163)"/>
<path d="M864.997 1484.08C689.651 1308.73 689.651 1024.44 864.997 849.095M1499.98 1484.08C1347.43 1636.63 1112.42 1656.46 938.433 1543.58M1782.11 566.96C1957.46 742.305 1957.46 1026.6 1782.11 1201.94M1712.11 1271.95L1571.4 1412.66M1690.73 496.412C1625.36 458.262 1552.42 438.018 1479.01 435.68M1359.07 447.968C1281.4 466.672 1207.76 506.336 1147.13 566.96L944.546 769.546" stroke="url(#paint4_linear_63_163)" stroke-width="60" stroke-linecap="round" stroke-linejoin="round"/>
<path d="M961.163 924.049L1021.97 863.238M1697.26 1115.67C1825.35 987.583 1825.35 779.905 1697.26 651.813C1657.47 612.026 1610.01 584.598 1559.64 569.527M1621.25 1191.69L1416.54 1396.4C1337.9 1475.03 1229.27 1505.4 1127.47 1487.48M1446.85 556.261C1369.17 560.617 1292.74 592.468 1233.4 651.813L1093.04 792.174M900.179 1000.95C847.809 1091.92 842.649 1202.64 884.701 1297.5" stroke="url(#paint5_linear_63_163)" stroke-width="60" stroke-linecap="round" stroke-linejoin="round"/>
<path d="M1210.42 850.156L1040.36 1020.22C988.29 1072.28 970.253 1145.5 986.246 1212.21M1498.92 1138.66L1328.86 1308.71C1306.16 1331.42 1279.43 1347.65 1250.98 1357.41" stroke="url(#paint6_linear_63_163)" stroke-width="60" stroke-linecap="round" stroke-linejoin="round"/>
<defs>
<linearGradient id="paint0_linear_63_163" x1="-2366.64" y1="-3220.32" x2="-3846.01" y2="-1740.94" gradientUnits="userSpaceOnUse">
<stop stop-color="#BA55FF"/>
<stop offset="1" stop-color="#35029C"/>
</linearGradient>
<linearGradient id="paint1_linear_63_163" x1="1304.05" y1="1422.82" x2="1092.25" y2="1634.63" gradientUnits="userSpaceOnUse">
<stop stop-color="#BA55FF"/>
<stop offset="1" stop-color="#35029C"/>
</linearGradient>
<linearGradient id="paint2_linear_63_163" x1="1318.81" y1="1475.57" x2="1162.54" y2="1631.84" gradientUnits="userSpaceOnUse">
<stop stop-color="#BA55FF"/>
<stop offset="1" stop-color="#35029C"/>
</linearGradient>
<linearGradient id="paint3_linear_63_163" x1="2666.68" y1="1707.4" x2="1632.89" y2="2741.18" gradientUnits="userSpaceOnUse">
<stop stop-color="#BA55FF"/>
<stop offset="1" stop-color="#35029C"/>
</linearGradient>
<linearGradient id="paint4_linear_63_163" x1="2345.58" y1="1150.15" x2="1290.64" y2="2205.09" gradientUnits="userSpaceOnUse">
<stop stop-color="#64EBEC"/>
<stop offset="1" stop-color="#3B31BC"/>
</linearGradient>
<linearGradient id="paint5_linear_63_163" x1="2108.25" y1="1078.48" x2="1269.55" y2="1917.17" gradientUnits="userSpaceOnUse">
<stop stop-color="#64EBEC"/>
<stop offset="1" stop-color="#3B31BC"/>
</linearGradient>
<linearGradient id="paint6_linear_63_163" x1="1612" y1="1258.04" x2="1274.84" y2="1595.21" gradientUnits="userSpaceOnUse">
<stop stop-color="#64EBEC"/>
<stop offset="1" stop-color="#3B31BC"/>
</linearGradient>
</defs>
</svg>
