<svg width="2435" height="2435" viewBox="0 0 2435 2435" fill="none" xmlns="http://www.w3.org/2000/svg">
<path d="M1145.48 522.339C778.836 510.197 441.33 755.523 350.804 1126.02C246.998 1550.87 507.256 1979.44 932.106 2083.24C1356.96 2187.05 1785.52 1926.79 1889.32 1501.94C1906.84 1430.23 1913.99 1358.42 1911.73 1288.08L1657.79 1542.03C1446.26 1753.55 1103.31 1753.55 891.788 1542.03C680.263 1330.5 680.263 987.552 891.788 776.027L1145.48 522.339Z" fill="url(#paint0_linear_63_77)"/>
<path d="M956.832 1477.09C781.487 1301.74 781.487 1017.45 956.832 842.105M1591.81 1477.09C1439.27 1629.64 1204.26 1649.47 1030.27 1536.59M1873.95 559.969C2049.3 735.315 2049.3 1019.61 1873.95 1194.95M1803.95 1264.95L1663.23 1405.67M1782.57 489.422C1717.2 451.272 1644.25 431.028 1570.84 428.689M1450.9 440.978C1373.24 459.682 1299.59 499.346 1238.97 559.969L1036.38 762.556" stroke="url(#paint1_linear_63_77)" stroke-width="60" stroke-linecap="round" stroke-linejoin="round"/>
<path d="M1053 917.058L1113.81 856.247M1789.1 1108.68C1917.19 980.592 1917.19 772.914 1789.1 644.822C1749.31 605.035 1701.85 577.607 1651.47 562.536M1713.08 1184.7L1508.38 1389.41C1447.62 1450.16 1368.96 1482.1 1289.38 1485.22M1538.69 549.27C1461.01 553.626 1384.58 585.477 1325.24 644.822L1184.87 785.182M992.014 993.959C939.644 1084.93 934.485 1195.65 976.537 1290.5" stroke="url(#paint2_linear_63_77)" stroke-width="60" stroke-linecap="round" stroke-linejoin="round"/>
<path d="M1245.69 899.734L1132.19 1013.23C1080.13 1065.29 1062.09 1138.51 1078.08 1205.22M1534.19 1188.23L1420.69 1301.72C1397.99 1324.43 1371.27 1340.66 1342.82 1350.42" stroke="url(#paint3_linear_63_77)" stroke-width="60" stroke-linecap="round" stroke-linejoin="round"/>
<g style="mix-blend-mode:overlay" opacity="0.4">
<path d="M1401.63 896.281C1381.71 885.73 1362.36 874.984 1343.61 864.043C1348.29 820.667 1367.64 777.878 1401.63 743.881C1481.35 664.164 1610.3 664.164 1690.02 743.881C1769.74 823.598 1769.74 952.552 1690.02 1032.27C1687.29 1035 1684.36 1037.54 1681.23 1039.89C1662.08 1030.12 1642.74 1020.15 1623.2 1009.99C1631.8 1004.52 1640.2 998.076 1648.41 990.652C1704.68 934.381 1704.09 842.355 1647.82 786.084C1591.55 729.813 1499.52 729.227 1443.25 785.498C1412.77 815.978 1399.29 856.422 1401.63 896.281Z" fill="white"/>
</g>
<path d="M1067.81 1384.27L1172.04 1488.51C1183.77 1500.23 1202.59 1500.16 1214.25 1488.51C1225.9 1476.86 1224.94 1457 1214.25 1446.31L1110.01 1342.07L1067.81 1384.27Z" fill="url(#paint4_linear_63_77)"/>
<path d="M1127.09 1276.7L1217.18 1366.79C1228.9 1378.52 1247.73 1378.45 1259.38 1366.79C1271.04 1355.14 1270.07 1335.28 1259.38 1324.59L1169.29 1234.49L1127.09 1276.7Z" fill="url(#paint5_linear_63_77)"/>
<path fill-rule="evenodd" clip-rule="evenodd" d="M1022.77 1368.93L1382.29 1009.41C1322.5 929.692 1328.95 816.564 1401.63 743.881C1481.35 664.164 1610.3 664.164 1690.02 743.881C1769.74 823.598 1769.74 952.552 1690.02 1032.27C1617.34 1104.95 1504.21 1111.4 1424.49 1051.61L1064.97 1411.13C1054.29 1421.82 1034.43 1422.79 1022.77 1411.13C1011.12 1399.48 1011.05 1380.65 1022.77 1368.93ZM1443.25 785.498C1499.52 729.227 1591.55 729.813 1647.82 786.084C1704.09 842.355 1704.68 934.381 1648.4 990.652C1592.13 1046.92 1499.52 1046.92 1443.25 990.652C1386.98 934.381 1386.98 841.769 1443.25 785.498Z" fill="url(#paint6_linear_63_77)"/>
<defs>
<linearGradient id="paint0_linear_63_77" x1="5501.04" y1="4794.22" x2="4056.01" y2="6239.24" gradientUnits="userSpaceOnUse">
<stop stop-color="#BA55FF"/>
<stop offset="1" stop-color="#35029C"/>
</linearGradient>
<linearGradient id="paint1_linear_63_77" x1="2437.42" y1="1143.16" x2="1382.48" y2="2198.1" gradientUnits="userSpaceOnUse">
<stop stop-color="#64EBEC"/>
<stop offset="1" stop-color="#3B31BC"/>
</linearGradient>
<linearGradient id="paint2_linear_63_77" x1="2200.08" y1="1071.48" x2="1361.39" y2="1910.18" gradientUnits="userSpaceOnUse">
<stop stop-color="#64EBEC"/>
<stop offset="1" stop-color="#3B31BC"/>
</linearGradient>
<linearGradient id="paint3_linear_63_77" x1="1647.88" y1="1307.01" x2="1375.79" y2="1579.11" gradientUnits="userSpaceOnUse">
<stop stop-color="#64EBEC"/>
<stop offset="1" stop-color="#3B31BC"/>
</linearGradient>
<linearGradient id="paint4_linear_63_77" x1="1231.63" y1="1209.69" x2="1418.58" y2="1396.64" gradientUnits="userSpaceOnUse">
<stop stop-color="#BA55FF"/>
<stop offset="1" stop-color="#35029C"/>
</linearGradient>
<linearGradient id="paint5_linear_63_77" x1="1291.52" y1="1102.72" x2="1457.37" y2="1268.57" gradientUnits="userSpaceOnUse">
<stop stop-color="#BA55FF"/>
<stop offset="1" stop-color="#35029C"/>
</linearGradient>
<linearGradient id="paint6_linear_63_77" x1="2730.69" y1="1727.27" x2="1735.46" y2="2722.5" gradientUnits="userSpaceOnUse">
<stop stop-color="#BA55FF"/>
<stop offset="1" stop-color="#35029C"/>
</linearGradient>
</defs>
</svg>
