<svg width="2343" height="2343" viewBox="0 0 2343 2343" fill="none" xmlns="http://www.w3.org/2000/svg">
<path d="M1927.44 1156.64C1902.98 1201.54 1871.75 1243.74 1833.75 1281.74L1565.34 1550.15C1351.9 1763.58 1005.85 1763.58 792.415 1550.15C578.978 1336.71 578.978 990.657 792.415 777.219L1060.82 508.81C1098.96 470.676 1141.33 439.356 1186.41 414.848C1105.9 409.19 1023.15 415.733 940.537 435.918C511.844 540.662 249.232 973.099 353.977 1401.79C458.722 1830.48 891.158 2093.1 1319.85 1988.35C1703.74 1894.55 1954.44 1537.99 1927.44 1156.64Z" fill="url(#paint0_linear_63_183)"/>
<path d="M862.491 1484.59C687.145 1309.25 687.145 1024.95 862.491 849.609M1497.47 1484.59C1344.92 1637.14 1109.92 1656.97 935.927 1544.09M1779.61 567.473C1954.95 742.819 1954.95 1027.11 1779.61 1202.46M1709.6 1272.46L1568.89 1413.17M1688.23 496.926C1622.86 458.776 1549.91 438.532 1476.5 436.193M1356.56 448.482C1278.9 467.186 1205.25 506.85 1144.63 567.473L942.04 770.059" stroke="url(#paint1_linear_63_183)" stroke-width="60" stroke-linecap="round" stroke-linejoin="round"/>
<path d="M958.657 924.562L1019.47 863.75M1694.76 1116.19C1822.85 988.096 1822.85 780.418 1694.76 652.326C1654.97 612.539 1607.5 585.11 1557.13 570.04M1618.74 1192.2L1414.03 1396.91C1353.28 1457.66 1274.62 1489.6 1195.04 1492.72M1444.35 556.774C1366.67 561.13 1290.24 592.981 1230.89 652.326L1090.53 792.686M897.673 1001.46C845.303 1092.43 840.143 1203.15 882.195 1298.01" stroke="url(#paint2_linear_63_183)" stroke-width="60" stroke-linecap="round" stroke-linejoin="round"/>
<path d="M1151.34 907.238L1037.85 1020.73C985.785 1072.8 967.747 1146.01 983.74 1212.73M1439.84 1195.74L1326.35 1309.23C1303.65 1331.93 1276.93 1348.16 1248.48 1357.93" stroke="url(#paint3_linear_63_183)" stroke-width="60" stroke-linecap="round" stroke-linejoin="round"/>
<g style="mix-blend-mode:overlay" opacity="0.4">
<path d="M1307.29 903.785C1287.36 893.234 1268.02 882.488 1249.26 871.547C1253.95 828.171 1273.3 785.382 1307.29 751.385C1387.01 671.668 1515.96 671.668 1595.68 751.385C1675.4 831.102 1675.4 960.056 1595.68 1039.77C1592.94 1042.51 1590.01 1045.05 1586.89 1047.39C1567.74 1037.62 1548.4 1027.66 1528.86 1017.5C1537.46 1012.03 1545.86 1005.58 1554.06 998.156C1610.33 941.885 1609.75 849.859 1553.48 793.588C1497.21 737.317 1405.18 736.731 1348.91 793.002C1318.43 823.482 1304.95 863.926 1307.29 903.785Z" fill="white"/>
</g>
<path d="M973.465 1391.78L1077.7 1496.01C1089.43 1507.74 1108.25 1507.67 1119.91 1496.01C1131.56 1484.36 1130.59 1464.5 1119.91 1453.81L1015.67 1349.57L973.465 1391.78Z" fill="url(#paint4_linear_63_183)"/>
<path d="M1032.74 1284.2L1122.84 1374.3C1134.56 1386.02 1153.39 1385.95 1165.04 1374.3C1176.7 1362.64 1175.73 1342.78 1165.04 1332.09L1074.95 1242L1032.74 1284.2Z" fill="url(#paint5_linear_63_183)"/>
<path fill-rule="evenodd" clip-rule="evenodd" d="M928.429 1376.43L1287.95 1016.91C1228.16 937.196 1234.61 824.068 1307.29 751.385C1387.01 671.668 1515.96 671.668 1595.68 751.385C1675.4 831.102 1675.4 960.056 1595.68 1039.77C1523 1112.46 1409.87 1118.9 1330.15 1059.12L970.633 1418.64C959.944 1429.32 940.084 1430.29 928.429 1418.64C916.775 1406.98 916.706 1388.16 928.429 1376.43ZM1348.91 793.002C1405.18 736.731 1497.21 737.317 1553.48 793.588C1609.75 849.859 1610.33 941.885 1554.06 998.156C1497.79 1054.43 1405.18 1054.43 1348.91 998.156C1292.64 941.885 1292.64 849.273 1348.91 793.002Z" fill="url(#paint6_linear_63_183)"/>
<defs>
<linearGradient id="paint0_linear_63_183" x1="-2366.63" y1="-3223.34" x2="-3846.01" y2="-1743.97" gradientUnits="userSpaceOnUse">
<stop stop-color="#BA55FF"/>
<stop offset="1" stop-color="#35029C"/>
</linearGradient>
<linearGradient id="paint1_linear_63_183" x1="2343.08" y1="1150.66" x2="1288.14" y2="2205.6" gradientUnits="userSpaceOnUse">
<stop stop-color="#64EBEC"/>
<stop offset="1" stop-color="#3B31BC"/>
</linearGradient>
<linearGradient id="paint2_linear_63_183" x1="2105.74" y1="1078.99" x2="1267.05" y2="1917.68" gradientUnits="userSpaceOnUse">
<stop stop-color="#64EBEC"/>
<stop offset="1" stop-color="#3B31BC"/>
</linearGradient>
<linearGradient id="paint3_linear_63_183" x1="1553.54" y1="1314.52" x2="1281.44" y2="1586.61" gradientUnits="userSpaceOnUse">
<stop stop-color="#64EBEC"/>
<stop offset="1" stop-color="#3B31BC"/>
</linearGradient>
<linearGradient id="paint4_linear_63_183" x1="1137.29" y1="1217.19" x2="1324.24" y2="1404.14" gradientUnits="userSpaceOnUse">
<stop stop-color="#BA55FF"/>
<stop offset="1" stop-color="#35029C"/>
</linearGradient>
<linearGradient id="paint5_linear_63_183" x1="1197.18" y1="1110.22" x2="1363.03" y2="1276.08" gradientUnits="userSpaceOnUse">
<stop stop-color="#BA55FF"/>
<stop offset="1" stop-color="#35029C"/>
</linearGradient>
<linearGradient id="paint6_linear_63_183" x1="2636.35" y1="1734.77" x2="1641.12" y2="2730" gradientUnits="userSpaceOnUse">
<stop stop-color="#BA55FF"/>
<stop offset="1" stop-color="#35029C"/>
</linearGradient>
</defs>
</svg>
