<svg width="2214" height="2751" viewBox="0 0 2214 2751" fill="none" xmlns="http://www.w3.org/2000/svg">
<path fill-rule="evenodd" clip-rule="evenodd" d="M1241.01 928.608L929.623 1239.99C918.502 1251.11 918.502 1268.91 929.623 1280.03C980.78 1331.19 1053.62 1351.76 1124.24 1335.64C1138.7 1332.3 1148.71 1316.73 1145.37 1302.27C1142.04 1286.7 1126.47 1277.8 1111.45 1280.59C1069.19 1290.59 1026.38 1282.25 991.345 1258.34L1043.61 1206.07C1098.66 1246.67 1168.73 1254.45 1237.68 1225.54C1251.58 1219.42 1258.81 1203.29 1252.69 1188.28C1246.58 1174.38 1229.89 1167.71 1215.99 1173.82C1168.17 1193.84 1121.46 1190.5 1084.21 1165.48L1281.04 968.644C1356.67 1025.36 1463.99 1019.24 1532.94 950.294C1608.56 874.67 1608.56 752.338 1532.94 676.714C1457.31 601.09 1334.98 601.09 1259.36 676.714C1190.41 745.665 1184.29 852.984 1241.01 928.608ZM1298.84 716.194C1352.22 662.812 1439.52 663.368 1492.9 716.75C1546.28 770.131 1546.84 857.432 1493.46 910.814C1440.08 964.195 1352.22 964.195 1298.84 910.814C1245.46 857.432 1245.46 769.575 1298.84 716.194Z" fill="url(#paint0_linear_63_282)"/>
<g style="mix-blend-mode:overlay" opacity="0.4">
<path d="M1259.36 821.288C1240.45 811.279 1222.1 801.085 1204.31 790.706C1208.76 749.557 1227.11 708.965 1259.36 676.714C1334.98 601.09 1457.31 601.09 1532.94 676.714C1608.56 752.338 1608.56 874.67 1532.94 950.294C1530.34 952.889 1527.56 955.298 1524.6 957.523C1506.43 948.255 1488.08 938.802 1469.55 929.164C1477.7 923.974 1485.67 917.857 1493.46 910.814C1546.84 857.432 1546.28 770.131 1492.9 716.75C1439.52 663.368 1352.22 662.812 1298.84 716.194C1269.92 745.109 1257.13 783.477 1259.36 821.288Z" fill="white"/>
</g>
<path fill-rule="evenodd" clip-rule="evenodd" d="M1156.48 1427.95C1164.26 1435.74 1175.94 1438.52 1186.51 1434.63C1231.55 1418.5 1271.03 1393.48 1304.95 1359.56L1490.67 1173.84C1501.79 1162.72 1501.79 1144.92 1490.67 1133.8C1481.43 1124.56 1463.01 1121.42 1450.63 1133.8C1450.63 1133.8 1357.27 1227.17 1349.15 1235.29L1264.91 1319.52C1237.11 1347.33 1203.74 1368.46 1167.04 1381.8C1153.14 1386.81 1144.8 1402.93 1150.36 1417.39C1151.85 1421.84 1153.88 1425.36 1156.48 1427.95ZM850.092 1359.56C915.707 1425.17 1006.34 1459.09 1098.65 1452.42C1114.22 1451.31 1125.9 1438.52 1124.78 1422.95C1123.67 1407.38 1110.88 1395.7 1095.31 1396.82C1018.58 1401.26 944.066 1373.46 890.128 1319.52C830.63 1260.03 802.827 1174.39 815.616 1091.54C817.841 1075.97 807.832 1061.51 792.262 1059.29C776.692 1057.06 762.235 1067.07 760.011 1082.64C744.441 1183.85 777.805 1287.27 850.092 1359.56ZM797.823 1015.92C799.676 1017.77 801.9 1019.62 804.495 1021.48C818.397 1028.71 835.078 1023.15 842.307 1009.24C855.096 985.333 870.666 964.203 890.128 944.741L1147.67 687.2C1158.23 676.635 1158.23 658.841 1147.11 647.72C1135.99 636.599 1118.2 636.599 1107.63 647.164L850.092 904.705C826.737 928.059 807.832 954.75 792.818 983.109C786.701 994.786 789.482 1007.58 797.823 1015.92ZM1169.26 626.683C1179.83 637.248 1196.51 637.248 1207.63 627.239C1312.72 533.265 1472.87 536.602 1572.96 636.692C1638.02 701.751 1664.15 794.612 1643.58 885.249C1639.69 900.263 1649.14 915.276 1664.15 919.169C1679.72 922.505 1694.74 913.052 1698.07 897.483C1723.65 788.496 1691.4 676.172 1612.44 597.212C1491.22 475.991 1297.16 470.987 1170.37 585.535C1158.7 596.1 1157.59 613.893 1168.15 625.571C1168.52 625.941 1168.89 626.312 1169.26 626.683ZM1545.16 1079.31C1556.28 1090.43 1574.08 1090.43 1584.64 1079.86L1632.74 1031.77C1643.86 1020.65 1643.86 1002.85 1632.74 991.733C1621.62 980.612 1603.82 980.612 1592.7 991.733L1544.61 1039.83C1534.04 1050.39 1534.04 1068.19 1545.16 1079.31ZM882.343 1197.19C889.016 1203.86 899.581 1206.64 909.034 1203.86C924.603 1200.53 933.5 1184.96 929.608 1169.94C916.263 1117.67 931.832 1062.07 969.644 1024.26L1137.66 856.243C1148.22 845.678 1148.22 827.884 1137.1 816.763C1125.98 805.642 1108.19 805.642 1097.62 816.207L929.608 984.221C877.895 1035.93 856.765 1112.67 874.559 1183.85C876.227 1188.85 878.451 1193.3 882.343 1197.19ZM1301.05 1164.38C1312.18 1175.5 1329.97 1175.5 1341.09 1164.38L1400.21 1105.26C1410.78 1094.7 1410.77 1076.9 1399.65 1065.78C1388.53 1054.66 1370.74 1054.66 1360.17 1065.23L1301.05 1124.35C1289.93 1135.47 1289.93 1153.26 1301.05 1164.38ZM1121.44 519.92C1131.45 529.929 1147.02 531.041 1158.14 522.144C1307.72 410.377 1520.13 424.834 1652.48 557.176C1700.85 605.553 1735.33 666.719 1752.01 733.446C1755.9 748.459 1770.92 757.912 1785.93 754.02C1800.94 750.128 1810.4 735.114 1806.5 720.1C1787.6 643.365 1748.12 573.858 1691.96 517.696C1540.15 365.892 1296.04 348.655 1124.78 477.66C1111.99 487.113 1109.21 504.351 1118.66 517.14C1119.77 518.252 1120.7 519.179 1121.44 519.92ZM1512.24 1271.27C1523.36 1282.39 1541.15 1282.39 1552.27 1271.27L1703.46 1120.08C1779.08 1044.46 1823.57 944.367 1830.24 837.604C1830.24 822.034 1819.12 808.689 1803.55 807.577C1787.42 807.021 1774.63 818.698 1773.52 834.267C1768.52 927.129 1729.04 1014.43 1663.42 1080.04L1512.23 1231.23C1501.11 1242.35 1501.11 1260.15 1512.24 1271.27ZM826.737 1486.34C827.85 1487.45 829.147 1488.38 830.63 1489.12C1003.56 1608.67 1236 1587.54 1384.46 1439.08L1482.33 1341.21C1493.45 1330.09 1493.45 1312.29 1482.33 1301.17C1471.21 1290.05 1453.41 1290.05 1442.29 1301.17L1344.43 1399.04C1215.42 1528.04 1013.02 1546.95 862.881 1443.52C850.092 1434.07 832.298 1437.41 823.957 1450.2C815.616 1461.87 817.284 1476.89 826.737 1486.34ZM748.334 1414.61C758.343 1424.62 775.024 1425.73 786.701 1416.28C797.823 1406.27 799.491 1387.92 789.482 1376.8C662.701 1227.77 672.154 1003.68 810.612 865.225C821.733 854.104 821.733 836.31 810.612 825.189C799.491 814.068 781.697 814.068 770.576 825.189C611.543 984.221 601.535 1242.23 746.665 1412.94C747.036 1413.31 747.592 1413.87 748.334 1414.61ZM828.962 806.839C840.083 817.96 857.877 817.96 868.998 806.839L1096.14 579.695C1106.71 569.13 1106.71 551.336 1095.59 540.215C1084.46 529.094 1066.67 529.094 1056.11 539.659L828.962 766.803C817.841 777.924 817.841 795.718 828.962 806.839Z" fill="url(#paint1_linear_63_282)"/>
<path d="M1772.13 1123.24C1749.63 1164.52 1720.92 1203.32 1685.98 1238.25L1439.2 1485.03C1242.97 1681.27 924.8 1681.27 728.561 1485.03C532.323 1288.8 532.323 970.631 728.561 774.392L975.342 527.612C1010.4 492.551 1049.36 463.754 1090.81 441.222C1016.78 436.02 940.7 442.035 864.747 460.593C470.599 556.898 229.149 954.487 325.453 1348.64C421.758 1742.78 819.347 1984.23 1213.5 1887.93C1566.45 1801.69 1796.95 1473.85 1772.13 1123.24Z" fill="url(#paint2_linear_63_282)"/>
<path d="M251.672 2715.39C247.74 2710.01 245.566 2700.73 245.078 2687.59C244.589 2674.45 244.345 2660.73 244.345 2646.64V2401.59C244.345 2389.4 244.467 2377.32 244.711 2365.37C244.956 2353.42 245.078 2341.35 245.078 2329.17C245.566 2317.97 245.933 2306.02 246.177 2293.32C246.012 2282.45 248.387 2271.68 253.113 2261.89C258.705 2250.82 268.438 2242.4 280.199 2238.46C290.906 2234.82 301.916 2232.13 313.098 2230.43V2223.1H94.4071V2230.43C106.002 2231.64 117.413 2234.21 128.405 2238.1C138.282 2241.68 147.002 2247.88 153.635 2256.02C156.926 2260.19 159.186 2265.08 160.229 2270.29C161.8 2277.03 162.902 2283.88 163.527 2290.78C164.259 2298.32 164.626 2306.46 164.626 2315.2V2526.59C164.626 2541.25 164.503 2555.51 164.259 2569.38C163.991 2583.28 163.771 2596.08 163.527 2607.78C163.282 2619.48 163.16 2628.76 163.16 2635.57C163.16 2643.39 163.16 2651.3 162.794 2659.36C162.427 2667.42 162.061 2675.06 161.328 2682.39C160.738 2688.79 159.759 2695.14 158.398 2701.42C157.559 2705.93 155.686 2710.18 152.927 2713.85C145.6 2722.15 136.457 2728.66 126.207 2732.85C115.294 2737.37 103.881 2740.57 92.209 2742.38V2749.7H313.831V2742.38C302.098 2741.05 290.563 2738.35 279.466 2734.32C266.766 2730 257.501 2723.69 251.672 2715.39Z" fill="url(#paint3_linear_63_282)"/>
<path d="M999.26 2725.99C994.302 2722.64 989.76 2718.71 985.729 2714.29C983.707 2712.13 981.868 2709.8 980.234 2707.33C976.826 2700.33 974.716 2692.78 974.006 2685.03C972.804 2675.69 972.201 2666.28 972.198 2656.87C971.694 2628.1 971.449 2600.79 971.466 2574.95V2429.39C971.466 2407.42 971.71 2384.75 972.198 2361.36C972.654 2344.28 973.379 2326.97 974.372 2309.42C975.365 2291.86 977.319 2278.94 980.234 2270.65C984.472 2259.46 991.946 2249.79 1001.7 2242.86C1012.2 2235.06 1027.44 2230.92 1047.42 2230.43V2223.1H891.795C890.33 2227.01 884.354 2241.27 873.868 2265.89C863.382 2290.51 849.973 2321.36 833.642 2358.43C817.359 2395.48 798.952 2436.92 778.42 2482.78C757.887 2528.63 736.924 2574.71 715.528 2621.01L540.58 2223.1H384.781V2230.43C390.618 2231.41 397.701 2232.99 405.981 2235.17C414.323 2237.39 422.238 2240.98 429.403 2245.79C437.091 2251.07 443.569 2257.92 448.405 2265.89C453.778 2274.44 456.709 2285.54 457.197 2299.18C457.662 2313.32 457.93 2325.27 457.93 2335.01V2427.19C457.93 2459.87 457.686 2490.46 457.197 2518.97C456.709 2547.48 455.976 2572.23 454.999 2593.22C454.822 2614.41 453.107 2635.56 449.87 2656.5C447.635 2671.67 442.941 2686.37 435.973 2700.03C430.043 2711.29 421.205 2720.76 410.377 2727.45C399.663 2733.97 385.766 2738.97 368.686 2742.45V2749.78H559.631V2742.45C538.643 2739.52 522.181 2734.76 510.246 2728.19C498.793 2722.1 489.477 2712.66 483.551 2701.12C477.205 2687.82 473.482 2673.41 472.584 2658.7C471.119 2641.88 470.386 2622.01 470.386 2599.08V2505.44C470.386 2478.64 470.508 2453.17 470.753 2429.02C470.997 2404.87 471.241 2380.45 471.485 2355.75C471.73 2331.13 471.852 2302.72 471.852 2270.53C474.278 2275.91 478.788 2286.15 485.383 2301.26C491.977 2316.37 500.387 2335.14 510.612 2357.58C520.854 2380 532.317 2405.6 545.001 2434.37C557.685 2463.14 571.338 2493.99 585.96 2526.91C600.614 2559.83 615.61 2594.09 630.949 2629.68C646.287 2665.28 661.755 2701.1 677.354 2737.15H681.75C682.727 2734.22 685.145 2728.26 689.077 2719.22C693.01 2710.19 697.137 2700.22 701.533 2689.23C705.93 2678.24 710.302 2667.54 714.698 2657.06C719.094 2646.59 722.489 2638.89 724.931 2634.01C741.019 2597.94 755.771 2564.9 769.187 2534.9C782.604 2504.89 795.891 2475.51 809.047 2446.77C822.203 2418 835.49 2388.5 848.907 2358.26C862.324 2328.03 877.076 2294.87 893.163 2258.78V2556.66C893.163 2585.97 892.674 2616.68 891.697 2648.81C891.218 2658.48 890.24 2668.13 888.767 2677.7C887.694 2685.9 885.482 2693.91 882.197 2701.49C877.312 2711.73 867.803 2720.75 853.67 2728.55C839.536 2736.35 821.984 2740.74 801.012 2741.72V2749.75H1051.87V2742.43C1041.44 2742.16 1031.11 2740.32 1021.24 2736.95C1013.45 2734.31 1006.06 2730.62 999.26 2725.99Z" fill="url(#paint4_linear_63_282)"/>
<path d="M1575.67 2582.26C1551.24 2624.18 1523.33 2658.81 1491.92 2686.13C1460.51 2713.45 1425 2729.3 1385.4 2733.66C1371.25 2735.12 1357.72 2736.1 1344.81 2736.59C1331.9 2737.08 1321.32 2737.32 1313.06 2737.32H1253.76C1234.22 2737.32 1212.24 2737.08 1187.82 2736.59L1557.3 2228.97L1555.1 2224.57H1321.05C1292.28 2224.57 1265.46 2224.45 1240.6 2224.2C1215.73 2223.96 1194.27 2223.71 1176.21 2223.47C1158.16 2223.23 1145.72 2222.86 1138.92 2222.37L1085.5 2378.17L1093.56 2381.1C1099.76 2371.13 1106.47 2361.48 1113.66 2352.21C1121.72 2341.74 1130.14 2331.37 1138.92 2321.12C1147.7 2310.86 1156.35 2301.47 1164.88 2292.96C1173.41 2284.42 1180.6 2277.72 1186.45 2272.86C1198.82 2262.99 1212.49 2254.86 1227.06 2248.7C1242.99 2242.13 1259.95 2238.42 1277.16 2237.73C1286.42 2237.28 1298.98 2236.91 1314.82 2236.63C1330.66 2236.36 1347.37 2236.24 1364.94 2236.27H1457.09L1086.97 2744.65L1089.9 2749.75H1530.97L1583.63 2585.11L1575.67 2582.26Z" fill="url(#paint5_linear_63_282)"/>
<path d="M2091.99 2735C2084.4 2731.57 2077.37 2727.01 2071.15 2721.47C2066.1 2716.99 2061.56 2711.96 2057.62 2706.47C2055.21 2703.2 2053.01 2699.78 2051.03 2696.24C2045.2 2683.56 2039.95 2672.22 2035.3 2662.22C2030.64 2652.22 2025.64 2639.67 2020.3 2624.56C2008.61 2593.83 1996.91 2562.75 1985.2 2531.31C1973.5 2499.86 1961.42 2467.3 1948.98 2433.61C1936.54 2399.99 1923.52 2364.98 1909.91 2328.59C1896.29 2292.2 1881.91 2253.79 1866.75 2213.38H1860.91C1858.96 2216.8 1856.15 2221.19 1852.49 2226.55C1848.38 2232.47 1843.86 2238.09 1838.95 2243.37C1833.25 2249.53 1827 2255.16 1820.29 2260.2C1812.94 2265.74 1804.97 2270.41 1796.53 2274.1L1803.86 2290.19C1792.13 2317.5 1779.69 2346.87 1766.54 2378.32C1753.38 2409.76 1740.1 2440.97 1726.68 2471.96L1687.6 2562.32C1674.9 2591.63 1663.44 2617.68 1653.21 2640.48C1644.78 2659.87 1635.2 2678.73 1624.51 2696.97C1616.73 2709.66 1611.12 2717.7 1607.69 2721.1C1606.24 2723.06 1600.99 2726.72 1591.96 2732.09C1581.96 2737.76 1570.87 2741.25 1559.42 2742.33V2750.36H1715.22V2743.04C1708.87 2742.06 1702.16 2740.96 1695.1 2739.74C1688.31 2738.6 1681.68 2736.63 1675.36 2733.88C1669.72 2731.53 1664.61 2728.05 1660.37 2723.64C1656.41 2719.38 1654.3 2713.73 1654.51 2707.91C1654.51 2697.18 1659.63 2678.65 1669.87 2652.33C1676.67 2635.25 1683.51 2618.3 1690.36 2601.5C1697.22 2584.7 1704.28 2567.01 1711.56 2548.45H1906.12C1913.45 2567.47 1920.28 2585.76 1926.61 2603.33C1932.95 2620.9 1938.55 2636.87 1943.44 2651.23C1948.32 2665.6 1952.1 2677.82 1954.77 2687.86C1956.94 2694.87 1958.29 2702.11 1958.8 2709.43C1958.9 2712.57 1958.33 2715.69 1957.13 2718.59C1955.93 2721.49 1954.13 2724.11 1951.84 2726.26C1947.19 2730.67 1941.72 2734.15 1935.75 2736.49C1926.74 2740.06 1917.25 2742.29 1907.59 2743.08V2750.41H2121.17V2741.64C2111.1 2741.39 2101.18 2739.13 2091.99 2735ZM1718.3 2533.11C1729.99 2504.37 1740.84 2477.68 1750.83 2453.03C1760.83 2428.38 1769.97 2406.31 1778.26 2386.84C1786.57 2367.3 1793.52 2350.72 1799.12 2337.09C1804.72 2323.46 1808.99 2313.46 1811.92 2307.1C1816.31 2317.84 1821.8 2331.62 1828.38 2348.42C1834.96 2365.22 1842.28 2383.76 1850.36 2404.03C1858.5 2424.26 1866.8 2445.34 1875.25 2467.29C1883.7 2489.24 1892.11 2511.22 1900.48 2533.24L1718.3 2533.11Z" fill="url(#paint6_linear_63_282)"/>
<defs>
<linearGradient id="paint0_linear_63_282" x1="598.769" y1="-309.246" x2="-301.096" y2="590.619" gradientUnits="userSpaceOnUse">
<stop stop-color="#BA55FF"/>
<stop offset="1" stop-color="#35029C"/>
</linearGradient>
<linearGradient id="paint1_linear_63_282" x1="985.647" y1="-1033.29" x2="-947.284" y2="899.644" gradientUnits="userSpaceOnUse">
<stop stop-color="#64EBEC"/>
<stop offset="1" stop-color="#3B31BC"/>
</linearGradient>
<linearGradient id="paint2_linear_63_282" x1="-2175.93" y1="-2903.8" x2="-3536.09" y2="-1543.63" gradientUnits="userSpaceOnUse">
<stop stop-color="#BA55FF"/>
<stop offset="1" stop-color="#35029C"/>
</linearGradient>
<linearGradient id="paint3_linear_63_282" x1="980.75" y1="2200.5" x2="980.75" y2="2985.94" gradientUnits="userSpaceOnUse">
<stop stop-color="#BA55FF"/>
<stop offset="1" stop-color="#35029C"/>
</linearGradient>
<linearGradient id="paint4_linear_63_282" x1="3107.75" y1="2200.5" x2="3107.75" y2="2986.05" gradientUnits="userSpaceOnUse">
<stop stop-color="#BA55FF"/>
<stop offset="1" stop-color="#35029C"/>
</linearGradient>
<linearGradient id="paint5_linear_63_282" x1="3082.62" y1="2199.73" x2="3082.62" y2="2986.35" gradientUnits="userSpaceOnUse">
<stop stop-color="#BA55FF"/>
<stop offset="1" stop-color="#35029C"/>
</linearGradient>
<linearGradient id="paint6_linear_63_282" x1="3811.62" y1="2190.33" x2="3811.62" y2="2991.33" gradientUnits="userSpaceOnUse">
<stop stop-color="#BA55FF"/>
<stop offset="1" stop-color="#35029C"/>
</linearGradient>
</defs>
</svg>
