<svg width="2343" height="2880" viewBox="0 0 2343 2880" fill="none" xmlns="http://www.w3.org/2000/svg">
<path d="M1927.44 1156.64C1902.98 1201.54 1871.75 1243.74 1833.75 1281.74L1565.34 1550.15C1351.9 1763.58 1005.85 1763.58 792.415 1550.15C578.978 1336.71 578.978 990.657 792.415 777.219L1060.82 508.81C1098.96 470.676 1141.33 439.356 1186.41 414.848C1105.9 409.19 1023.15 415.733 940.537 435.918C511.844 540.662 249.232 973.099 353.977 1401.79C458.722 1830.48 891.158 2093.1 1319.85 1988.35C1703.74 1894.55 1954.44 1537.99 1927.44 1156.64Z" fill="url(#paint0_linear_63_285)"/>
<path d="M862.491 1484.59C687.145 1309.25 687.145 1024.95 862.491 849.609M1497.47 1484.59C1344.92 1637.14 1109.92 1656.97 935.927 1544.09M1779.61 567.473C1954.95 742.819 1954.95 1027.11 1779.61 1202.46M1709.6 1272.46L1568.89 1413.17M1688.23 496.926C1622.86 458.776 1549.91 438.532 1476.5 436.193M1356.56 448.482C1278.9 467.186 1205.25 506.85 1144.63 567.473L942.04 770.059" stroke="url(#paint1_linear_63_285)" stroke-width="60" stroke-linecap="round" stroke-linejoin="round"/>
<path d="M958.657 924.562L1019.47 863.75M1694.76 1116.19C1822.85 988.096 1822.85 780.418 1694.76 652.326C1654.97 612.539 1607.5 585.11 1557.13 570.04M1618.74 1192.2L1414.03 1396.91C1353.28 1457.66 1274.62 1489.6 1195.04 1492.72M1444.35 556.774C1366.67 561.13 1290.24 592.981 1230.89 652.326L1090.53 792.686M897.673 1001.46C845.303 1092.43 840.143 1203.15 882.195 1298.01" stroke="url(#paint2_linear_63_285)" stroke-width="60" stroke-linecap="round" stroke-linejoin="round"/>
<path d="M1151.34 907.238L1037.85 1020.73C985.785 1072.8 967.747 1146.01 983.74 1212.73M1439.84 1195.74L1326.35 1309.23C1303.65 1331.93 1276.93 1348.16 1248.48 1357.93" stroke="url(#paint3_linear_63_285)" stroke-width="60" stroke-linecap="round" stroke-linejoin="round"/>
<g style="mix-blend-mode:overlay" opacity="0.4">
<path d="M1307.29 903.785C1287.36 893.234 1268.02 882.488 1249.26 871.547C1253.95 828.171 1273.3 785.382 1307.29 751.385C1387.01 671.668 1515.96 671.668 1595.68 751.385C1675.4 831.102 1675.4 960.056 1595.68 1039.77C1592.94 1042.51 1590.01 1045.05 1586.89 1047.39C1567.74 1037.62 1548.4 1027.66 1528.86 1017.5C1537.46 1012.03 1545.86 1005.58 1554.06 998.156C1610.33 941.885 1609.75 849.859 1553.48 793.588C1497.21 737.317 1405.18 736.731 1348.91 793.002C1318.43 823.482 1304.95 863.926 1307.29 903.785Z" fill="white"/>
</g>
<path d="M973.465 1391.78L1077.7 1496.01C1089.43 1507.74 1108.25 1507.67 1119.91 1496.01C1131.56 1484.36 1130.59 1464.5 1119.91 1453.81L1015.67 1349.57L973.465 1391.78Z" fill="url(#paint4_linear_63_285)"/>
<path d="M1032.74 1284.2L1122.84 1374.3C1134.56 1386.02 1153.39 1385.95 1165.04 1374.3C1176.7 1362.64 1175.73 1342.78 1165.04 1332.09L1074.95 1242L1032.74 1284.2Z" fill="url(#paint5_linear_63_285)"/>
<path fill-rule="evenodd" clip-rule="evenodd" d="M928.429 1376.43L1287.95 1016.91C1228.16 937.196 1234.61 824.068 1307.29 751.385C1387.01 671.668 1515.96 671.668 1595.68 751.385C1675.4 831.102 1675.4 960.056 1595.68 1039.77C1523 1112.46 1409.87 1118.9 1330.15 1059.12L970.633 1418.64C959.944 1429.32 940.084 1430.29 928.429 1418.64C916.775 1406.98 916.706 1388.16 928.429 1376.43ZM1348.91 793.002C1405.18 736.731 1497.21 737.317 1553.48 793.588C1609.75 849.859 1610.33 941.885 1554.06 998.156C1497.79 1054.43 1405.18 1054.43 1348.91 998.156C1292.64 941.885 1292.64 849.273 1348.91 793.002Z" fill="url(#paint6_linear_63_285)"/>
<path d="M316.147 2844.34C312.215 2838.96 310.041 2829.68 309.552 2816.54C309.064 2803.4 308.82 2789.67 308.82 2775.58V2530.54C308.82 2518.34 308.942 2506.27 309.186 2494.32C309.43 2482.37 309.552 2470.3 309.552 2458.12C310.041 2446.92 310.407 2434.97 310.651 2422.27C310.487 2411.39 312.862 2400.63 317.588 2390.83C323.18 2379.76 332.913 2371.35 344.674 2367.41C355.381 2363.76 366.39 2361.08 377.573 2359.38V2352.05H158.882V2359.38C170.477 2360.59 181.888 2363.16 192.88 2367.04C202.757 2370.63 211.477 2376.82 218.11 2384.97C221.401 2389.14 223.66 2394.03 224.704 2399.24C226.275 2405.98 227.377 2412.83 228.001 2419.73C228.734 2427.27 229.1 2435.41 229.1 2444.15V2655.54C229.1 2670.19 228.978 2684.46 228.734 2698.33C228.465 2712.23 228.245 2725.03 228.001 2736.72C227.757 2748.42 227.635 2757.7 227.635 2764.52C227.635 2772.33 227.635 2780.25 227.268 2788.31C226.902 2796.37 226.536 2804.01 225.803 2811.34C225.213 2817.73 224.234 2824.09 222.872 2830.36C222.033 2834.88 220.161 2839.13 217.401 2842.8C210.075 2851.1 200.931 2857.6 190.682 2861.8C179.769 2866.32 168.355 2869.51 156.684 2871.32V2878.65H378.305V2871.32C366.573 2870 355.038 2867.3 343.941 2863.26C331.241 2858.95 321.976 2852.64 316.147 2844.34Z" fill="url(#paint7_linear_63_285)"/>
<path d="M1063.73 2854.94C1058.78 2851.59 1054.23 2847.66 1050.2 2843.24C1048.18 2841.07 1046.34 2838.74 1044.71 2836.28C1041.3 2829.28 1039.19 2821.73 1038.48 2813.98C1037.28 2804.64 1036.68 2795.23 1036.67 2785.82C1036.17 2757.04 1035.92 2729.74 1035.94 2703.9V2558.33C1035.94 2536.37 1036.18 2513.69 1036.67 2490.31C1037.13 2473.23 1037.85 2455.92 1038.85 2438.36C1039.84 2420.81 1041.79 2407.89 1044.71 2399.6C1048.95 2388.41 1056.42 2378.74 1066.18 2371.81C1076.68 2364.01 1091.92 2359.86 1111.9 2359.38V2352.05H956.27C954.804 2355.96 948.829 2370.22 938.343 2394.84C927.857 2419.46 914.448 2450.31 898.117 2487.38C881.834 2524.42 863.427 2565.87 842.894 2611.72C822.362 2657.57 801.398 2703.65 780.003 2749.96L605.055 2352.05H449.255V2359.38C455.093 2360.35 462.176 2361.94 470.455 2364.11C478.798 2366.33 486.713 2369.92 493.878 2374.74C501.566 2380.01 508.043 2386.87 512.879 2394.84C518.253 2403.39 521.184 2414.48 521.672 2428.13C522.136 2442.27 522.405 2454.21 522.405 2463.96V2556.13C522.405 2588.81 522.161 2619.41 521.672 2647.92C521.184 2676.43 520.451 2701.18 519.474 2722.17C519.296 2743.36 517.582 2764.51 514.345 2785.45C512.109 2800.62 507.415 2815.32 500.448 2828.97C494.517 2840.24 485.679 2849.71 474.852 2856.4C464.138 2862.91 450.241 2867.91 433.16 2871.4V2878.72H624.106V2871.4C603.117 2868.47 586.656 2863.71 574.721 2857.13C563.268 2851.05 553.952 2841.61 548.025 2830.07C541.68 2816.77 537.957 2802.36 537.059 2787.65C535.594 2770.83 534.861 2750.95 534.861 2728.03V2634.39C534.861 2607.59 534.983 2582.11 535.227 2557.97C535.472 2533.82 535.716 2509.4 535.96 2484.69C536.204 2460.08 536.326 2431.67 536.326 2399.48C538.752 2404.85 543.263 2415.09 549.857 2430.21C556.452 2445.32 564.862 2464.09 575.087 2486.53C585.329 2508.95 596.792 2534.54 609.476 2563.31C622.16 2592.09 635.813 2622.93 650.435 2655.86C665.089 2688.78 680.085 2723.04 695.423 2758.63C710.761 2794.23 726.23 2830.05 741.829 2866.1H746.225C747.202 2863.17 749.62 2857.21 753.552 2848.17C757.484 2839.13 761.612 2829.17 766.008 2818.18C770.404 2807.19 774.776 2796.49 779.172 2786.01C783.569 2775.53 786.964 2767.84 789.406 2762.96C805.493 2726.89 820.245 2693.85 833.662 2663.84C847.079 2633.83 860.365 2604.46 873.522 2575.72C886.678 2546.95 899.965 2517.45 913.381 2487.21C926.798 2456.97 941.55 2423.81 957.637 2387.73V2685.6C957.637 2714.91 957.149 2745.63 956.172 2777.76C955.693 2787.43 954.714 2797.08 953.241 2806.65C952.168 2814.85 949.957 2822.85 946.671 2830.44C941.786 2840.68 932.277 2849.7 918.144 2857.5C904.011 2865.3 886.458 2869.69 865.486 2870.66V2878.7H1116.34V2871.37C1105.92 2871.11 1095.59 2869.27 1085.72 2865.9C1077.93 2863.26 1070.53 2859.57 1063.73 2854.94Z" fill="url(#paint8_linear_63_285)"/>
<path d="M1640.14 2711.2C1615.72 2753.13 1587.8 2787.76 1556.39 2815.08C1524.98 2842.4 1489.48 2858.24 1449.88 2862.61C1435.73 2864.07 1422.2 2865.05 1409.29 2865.54C1396.37 2866.03 1385.79 2866.27 1377.54 2866.27H1318.23C1298.7 2866.27 1276.71 2866.03 1252.29 2865.54L1621.77 2357.91L1619.58 2353.52H1385.52C1356.75 2353.52 1329.93 2353.39 1305.07 2353.15C1280.21 2352.91 1258.75 2352.66 1240.69 2352.42C1222.63 2352.17 1210.2 2351.81 1203.39 2351.32L1149.98 2507.12L1158.04 2510.05C1164.23 2500.08 1170.94 2490.43 1178.14 2481.16C1186.2 2470.69 1194.62 2460.32 1203.39 2450.06C1212.17 2439.81 1220.82 2430.42 1229.36 2421.9C1237.89 2413.37 1245.08 2406.67 1250.92 2401.8C1263.3 2391.94 1276.96 2383.81 1291.54 2377.65C1307.46 2371.08 1324.42 2367.37 1341.63 2366.68C1350.9 2366.23 1363.45 2365.86 1379.29 2365.58C1395.14 2365.31 1411.84 2365.18 1429.41 2365.22H1521.56L1151.44 2873.6L1154.37 2878.7H1595.44L1648.1 2714.06L1640.14 2711.2Z" fill="url(#paint9_linear_63_285)"/>
<path d="M2156.46 2863.95C2148.87 2860.52 2141.85 2855.96 2135.63 2850.42C2130.57 2845.94 2126.03 2840.91 2122.1 2835.42C2119.69 2832.15 2117.48 2828.73 2115.5 2825.19C2109.67 2812.5 2104.43 2801.16 2099.77 2791.16C2095.12 2781.17 2090.12 2768.61 2084.78 2753.5C2073.09 2722.78 2061.39 2691.69 2049.68 2660.25C2037.97 2628.81 2025.9 2596.25 2013.46 2562.56C2001.02 2528.93 1987.99 2493.93 1974.38 2457.54C1960.77 2421.14 1946.38 2382.74 1931.22 2342.33H1925.39C1923.43 2345.75 1920.62 2350.14 1916.96 2355.49C1912.86 2361.42 1908.33 2367.04 1903.43 2372.32C1897.72 2378.47 1891.48 2384.1 1884.77 2389.15C1877.42 2394.69 1869.44 2399.35 1861 2403.05L1868.33 2419.14C1856.61 2446.45 1844.17 2475.82 1831.01 2507.26C1817.86 2538.7 1804.57 2569.92 1791.15 2600.9L1752.07 2691.27C1739.37 2720.58 1727.91 2746.63 1717.69 2769.43C1709.26 2788.81 1699.67 2807.68 1688.99 2825.92C1681.2 2838.6 1675.6 2846.65 1672.16 2850.05C1670.71 2852 1665.47 2855.67 1656.43 2861.04C1646.43 2866.71 1635.34 2870.2 1623.9 2871.27V2879.31H1779.7V2871.98C1773.35 2871.01 1766.64 2869.91 1759.57 2868.69C1752.78 2867.55 1746.15 2865.58 1739.84 2862.82C1734.19 2860.48 1729.09 2856.99 1724.84 2852.59C1720.88 2848.33 1718.78 2842.67 1718.98 2836.86C1718.98 2826.13 1724.1 2807.6 1734.34 2781.27C1741.15 2764.19 1747.98 2747.25 1754.83 2730.45C1761.69 2713.64 1768.76 2695.96 1776.03 2677.4H1970.59C1977.92 2696.42 1984.75 2714.71 1991.09 2732.28C1997.42 2749.85 2003.03 2765.81 2007.91 2780.17C2012.8 2794.55 2016.58 2806.76 2019.25 2816.81C2021.41 2823.82 2022.77 2831.06 2023.28 2838.38C2023.38 2841.51 2022.81 2844.64 2021.61 2847.54C2020.41 2850.44 2018.6 2853.05 2016.32 2855.2C2011.66 2859.62 2006.19 2863.09 2000.22 2865.44C1991.21 2869.01 1981.72 2871.23 1972.06 2872.03V2879.36H2185.65V2870.59C2175.57 2870.33 2165.65 2868.08 2156.46 2863.95ZM1782.78 2662.06C1794.47 2633.32 1805.31 2606.63 1815.31 2581.97C1825.31 2557.32 1834.45 2535.26 1842.74 2515.79C1851.04 2496.25 1857.99 2479.66 1863.59 2466.03C1869.2 2452.41 1873.46 2442.41 1876.39 2436.04C1880.79 2446.79 1886.28 2460.56 1892.85 2477.37C1899.43 2494.17 1906.76 2512.71 1914.84 2532.98C1922.98 2553.2 1931.27 2574.29 1939.72 2596.24C1948.17 2618.19 1956.58 2640.17 1964.95 2662.18L1782.78 2662.06Z" fill="url(#paint10_linear_63_285)"/>
<defs>
<linearGradient id="paint0_linear_63_285" x1="-2366.63" y1="-3223.34" x2="-3846.01" y2="-1743.97" gradientUnits="userSpaceOnUse">
<stop stop-color="#BA55FF"/>
<stop offset="1" stop-color="#35029C"/>
</linearGradient>
<linearGradient id="paint1_linear_63_285" x1="2343.08" y1="1150.66" x2="1288.14" y2="2205.6" gradientUnits="userSpaceOnUse">
<stop stop-color="#64EBEC"/>
<stop offset="1" stop-color="#3B31BC"/>
</linearGradient>
<linearGradient id="paint2_linear_63_285" x1="2105.74" y1="1078.99" x2="1267.05" y2="1917.68" gradientUnits="userSpaceOnUse">
<stop stop-color="#64EBEC"/>
<stop offset="1" stop-color="#3B31BC"/>
</linearGradient>
<linearGradient id="paint3_linear_63_285" x1="1553.54" y1="1314.52" x2="1281.44" y2="1586.61" gradientUnits="userSpaceOnUse">
<stop stop-color="#64EBEC"/>
<stop offset="1" stop-color="#3B31BC"/>
</linearGradient>
<linearGradient id="paint4_linear_63_285" x1="1137.29" y1="1217.19" x2="1324.24" y2="1404.14" gradientUnits="userSpaceOnUse">
<stop stop-color="#BA55FF"/>
<stop offset="1" stop-color="#35029C"/>
</linearGradient>
<linearGradient id="paint5_linear_63_285" x1="1197.18" y1="1110.22" x2="1363.03" y2="1276.08" gradientUnits="userSpaceOnUse">
<stop stop-color="#BA55FF"/>
<stop offset="1" stop-color="#35029C"/>
</linearGradient>
<linearGradient id="paint6_linear_63_285" x1="2636.35" y1="1734.77" x2="1641.12" y2="2730" gradientUnits="userSpaceOnUse">
<stop stop-color="#BA55FF"/>
<stop offset="1" stop-color="#35029C"/>
</linearGradient>
<linearGradient id="paint7_linear_63_285" x1="1045.22" y1="2329.45" x2="1045.22" y2="3114.89" gradientUnits="userSpaceOnUse">
<stop stop-color="#BA55FF"/>
<stop offset="1" stop-color="#35029C"/>
</linearGradient>
<linearGradient id="paint8_linear_63_285" x1="3172.22" y1="2329.44" x2="3172.22" y2="3115" gradientUnits="userSpaceOnUse">
<stop stop-color="#BA55FF"/>
<stop offset="1" stop-color="#35029C"/>
</linearGradient>
<linearGradient id="paint9_linear_63_285" x1="3147.09" y1="2328.68" x2="3147.09" y2="3115.29" gradientUnits="userSpaceOnUse">
<stop stop-color="#BA55FF"/>
<stop offset="1" stop-color="#35029C"/>
</linearGradient>
<linearGradient id="paint10_linear_63_285" x1="3876.1" y1="2319.28" x2="3876.1" y2="3120.28" gradientUnits="userSpaceOnUse">
<stop stop-color="#BA55FF"/>
<stop offset="1" stop-color="#35029C"/>
</linearGradient>
</defs>
</svg>
