<svg width="2388" height="2925" viewBox="0 0 2388 2925" fill="none" xmlns="http://www.w3.org/2000/svg">
<path fill-rule="evenodd" clip-rule="evenodd" d="M1425.01 938.854L1113.63 1250.24C1102.5 1261.36 1102.5 1279.15 1113.63 1290.28C1164.78 1341.43 1237.63 1362.01 1308.24 1345.88C1322.7 1342.54 1332.71 1326.98 1329.38 1312.52C1326.04 1296.95 1310.47 1288.05 1295.46 1290.83C1253.2 1300.84 1210.38 1292.5 1175.35 1268.59L1227.62 1216.32C1282.67 1256.91 1352.73 1264.7 1421.68 1235.78C1435.58 1229.67 1442.81 1213.54 1436.69 1198.53C1430.58 1184.62 1413.9 1177.95 1399.99 1184.07C1352.17 1204.09 1305.46 1200.75 1268.21 1175.73L1465.05 978.89C1540.67 1035.61 1647.99 1029.49 1716.94 960.54C1792.56 884.916 1792.56 762.584 1716.94 686.96C1641.32 611.336 1518.98 611.336 1443.36 686.96C1374.41 755.911 1368.29 863.23 1425.01 938.854ZM1482.84 726.44C1536.22 673.058 1623.52 673.615 1676.9 726.996C1730.29 780.377 1730.84 867.678 1677.46 921.06C1624.08 974.441 1536.22 974.441 1482.84 921.06C1429.46 867.678 1429.46 779.821 1482.84 726.44Z" fill="url(#paint0_linear_63_262)"/>
<g style="mix-blend-mode:overlay" opacity="0.4">
<path d="M1443.36 831.535C1424.45 821.526 1406.1 811.331 1388.31 800.952C1392.76 759.803 1411.11 719.211 1443.36 686.96C1518.98 611.336 1641.32 611.336 1716.94 686.96C1792.56 762.584 1792.56 884.916 1716.94 960.54C1714.35 963.135 1711.57 965.544 1708.6 967.769C1690.44 958.501 1672.09 949.048 1653.55 939.41C1661.71 934.22 1669.68 928.103 1677.46 921.06C1730.84 867.678 1730.29 780.377 1676.9 726.996C1623.52 673.615 1536.22 673.058 1482.84 726.44C1453.93 755.355 1441.14 793.723 1443.36 831.535Z" fill="white"/>
</g>
<path fill-rule="evenodd" clip-rule="evenodd" d="M1340.48 1438.2C1348.27 1445.99 1359.94 1448.77 1370.51 1444.87C1415.55 1428.75 1455.03 1403.73 1488.95 1369.81L1674.67 1184.08C1685.79 1172.96 1685.79 1155.17 1674.67 1144.05C1665.43 1134.81 1647.01 1131.67 1634.64 1144.05C1634.64 1144.05 1541.27 1237.41 1533.15 1245.53L1448.91 1329.77C1421.11 1357.57 1387.75 1378.7 1351.05 1392.05C1337.14 1397.05 1328.8 1413.18 1334.36 1427.64C1335.85 1432.08 1337.89 1435.61 1340.48 1438.2ZM1034.09 1369.81C1099.71 1435.42 1190.35 1469.34 1282.65 1462.67C1298.22 1461.55 1309.9 1448.77 1308.79 1433.2C1307.67 1417.63 1294.88 1405.95 1279.31 1407.06C1202.58 1411.51 1128.07 1383.71 1074.13 1329.77C1014.63 1270.27 986.829 1184.64 999.618 1101.79C1001.84 1086.22 991.833 1071.76 976.264 1069.53C960.694 1067.31 946.237 1077.32 944.013 1092.89C928.443 1194.09 961.807 1297.52 1034.09 1369.81ZM981.825 1026.16C983.678 1028.02 985.902 1029.87 988.497 1031.72C1002.4 1038.95 1019.08 1033.39 1026.31 1019.49C1039.1 995.579 1054.67 974.449 1074.13 954.987L1331.67 697.446C1342.24 686.881 1342.24 669.087 1331.12 657.966C1319.99 646.845 1302.2 646.845 1291.63 657.41L1034.09 914.951C1010.74 938.305 991.834 964.996 976.82 993.355C970.703 1005.03 973.484 1017.82 981.825 1026.16ZM1353.26 636.929C1363.83 647.494 1380.51 647.494 1391.63 637.485C1496.73 543.511 1656.87 546.848 1756.96 646.938C1822.02 711.997 1848.15 804.858 1827.58 895.496C1823.69 910.509 1833.14 925.523 1848.15 929.415C1863.72 932.751 1878.74 923.298 1882.07 907.729C1907.65 798.742 1875.4 686.418 1796.44 607.458C1675.22 486.238 1481.16 481.233 1354.38 595.781C1342.7 606.346 1341.59 624.14 1352.15 635.817C1352.52 636.187 1352.89 636.558 1353.26 636.929ZM1729.16 1089.55C1740.29 1100.67 1758.08 1100.67 1768.64 1090.11L1816.74 1042.02C1827.86 1030.89 1827.86 1013.1 1816.74 1001.98C1805.62 990.858 1787.82 990.858 1776.7 1001.98L1728.61 1050.07C1718.04 1060.64 1718.04 1078.43 1729.16 1089.55ZM1066.35 1207.44C1073.02 1214.11 1083.58 1216.89 1093.04 1214.11C1108.61 1210.77 1117.5 1195.2 1113.61 1180.19C1100.26 1127.92 1115.83 1072.32 1153.65 1034.5L1321.66 866.489C1332.23 855.924 1332.23 838.131 1321.1 827.009C1309.98 815.888 1292.19 815.888 1281.62 826.453L1113.61 994.468C1061.9 1046.18 1040.77 1122.92 1058.56 1194.09C1060.23 1199.1 1062.45 1203.54 1066.35 1207.44ZM1485.06 1174.63C1496.18 1185.75 1513.97 1185.75 1525.09 1174.63L1584.21 1115.51C1594.78 1104.94 1594.78 1087.15 1583.66 1076.03C1572.53 1064.91 1554.74 1064.91 1544.18 1075.47L1485.06 1134.59C1473.93 1145.71 1473.93 1163.51 1485.06 1174.63ZM1305.44 530.166C1315.45 540.175 1331.02 541.287 1342.14 532.39C1491.72 420.623 1704.14 435.08 1836.48 567.422C1884.85 615.799 1919.33 676.965 1936.01 743.692C1939.9 758.705 1954.92 768.158 1969.93 764.266C1984.94 760.374 1994.4 745.36 1990.51 730.347C1971.6 653.611 1932.12 584.104 1875.96 527.942C1724.15 376.138 1480.05 358.901 1308.78 487.906C1295.99 497.359 1293.21 514.597 1302.66 527.386C1303.78 528.498 1304.7 529.425 1305.44 530.166ZM1696.24 1281.51C1707.36 1292.63 1725.15 1292.63 1736.27 1281.51L1887.46 1130.33C1963.08 1054.7 2007.57 954.613 2014.24 847.85C2014.24 832.281 2003.12 818.935 1987.55 817.823C1971.42 817.267 1958.63 828.944 1957.52 844.514C1952.52 937.375 1913.04 1024.68 1847.42 1090.29L1696.24 1241.48C1685.12 1252.6 1685.12 1270.39 1696.24 1281.51ZM1010.74 1496.59C1011.85 1497.7 1013.15 1498.63 1014.63 1499.37C1187.57 1618.92 1420 1597.79 1568.46 1449.32L1666.33 1351.46C1677.45 1340.33 1677.45 1322.54 1666.33 1311.42C1655.21 1300.3 1637.42 1300.3 1626.29 1311.42L1528.43 1409.29C1399.42 1538.29 1197.02 1557.2 1046.88 1453.77C1034.09 1444.32 1016.3 1447.65 1007.96 1460.44C999.618 1472.12 1001.29 1487.13 1010.74 1496.59ZM932.336 1424.86C942.345 1434.86 959.026 1435.98 970.703 1426.52C981.824 1416.51 983.493 1398.16 973.484 1387.04C846.703 1238.02 856.156 1013.93 994.614 875.471C1005.73 864.35 1005.73 846.556 994.614 835.435C983.493 824.314 965.699 824.314 954.578 835.435C795.545 994.467 785.537 1252.48 930.667 1423.19C931.038 1423.56 931.594 1424.11 932.336 1424.86ZM1012.96 817.085C1024.08 828.206 1041.88 828.206 1053 817.085L1280.14 589.941C1290.71 579.376 1290.71 561.582 1279.59 550.461C1268.47 539.34 1250.67 539.34 1240.11 549.905L1012.96 777.049C1001.84 788.17 1001.84 805.964 1012.96 817.085Z" fill="url(#paint1_linear_63_262)"/>
<path d="M1773.95 1345.26C1775.47 1677.29 1550.19 1979.42 1213.49 2061.68C819.347 2157.99 421.757 1916.54 325.453 1522.39C229.149 1128.24 470.599 730.654 864.747 634.349C938.177 616.408 1011.73 610.189 1083.43 614.496L908.164 789.758C711.926 985.997 711.926 1304.16 908.164 1500.4C1104.4 1696.64 1422.57 1696.64 1618.81 1500.4L1773.95 1345.26Z" fill="url(#paint2_linear_63_262)"/>
<path d="M338.551 2889.14C334.619 2883.77 332.445 2874.49 331.957 2861.35C331.468 2848.21 331.224 2834.48 331.224 2820.39V2575.35C331.224 2563.15 331.346 2551.08 331.59 2539.13C331.834 2527.17 331.957 2515.11 331.957 2502.93C332.445 2491.73 332.811 2479.78 333.056 2467.08C332.891 2456.2 335.266 2445.44 339.992 2435.64C345.584 2424.57 355.317 2416.16 367.078 2412.22C377.785 2408.57 388.794 2405.88 399.977 2404.18V2396.86H181.286V2404.18C192.881 2405.4 204.292 2407.97 215.284 2411.85C225.161 2415.44 233.881 2421.63 240.514 2429.78C243.805 2433.95 246.065 2438.84 247.108 2444.04C248.679 2450.79 249.781 2457.64 250.405 2464.54C251.138 2472.07 251.505 2480.22 251.505 2488.96V2700.35C251.505 2715 251.382 2729.27 251.138 2743.14C250.869 2757.04 250.65 2769.83 250.405 2781.53C250.161 2793.23 250.039 2802.51 250.039 2809.33C250.039 2817.14 250.039 2825.06 249.673 2833.12C249.306 2841.18 248.94 2848.82 248.207 2856.15C247.617 2862.54 246.638 2868.9 245.276 2875.17C244.438 2879.68 242.565 2883.94 239.806 2887.61C232.479 2895.91 223.336 2902.41 213.086 2906.61C202.173 2911.13 190.76 2914.32 179.088 2916.13V2923.46H400.71V2916.13C388.977 2914.81 377.442 2912.1 366.345 2908.07C353.645 2903.76 344.38 2897.45 338.551 2889.14Z" fill="url(#paint3_linear_63_262)"/>
<path d="M1086.14 2899.74C1081.18 2896.39 1076.64 2892.47 1072.61 2888.04C1070.59 2885.88 1068.75 2883.55 1067.11 2881.08C1063.71 2874.09 1061.6 2866.53 1060.88 2858.79C1059.68 2849.45 1059.08 2840.04 1059.08 2830.62C1058.57 2801.85 1058.33 2774.55 1058.34 2748.71V2603.14C1058.34 2581.18 1058.59 2558.5 1059.08 2535.12C1059.53 2518.04 1060.26 2500.72 1061.25 2483.17C1062.24 2465.62 1064.2 2452.7 1067.11 2444.41C1071.35 2433.22 1078.82 2423.54 1088.58 2416.62C1099.08 2408.82 1114.32 2404.67 1134.3 2404.18V2396.86H978.674C977.209 2400.77 971.233 2415.03 960.747 2439.65C950.261 2464.27 936.852 2495.11 920.521 2532.19C904.238 2569.23 885.831 2610.68 865.299 2656.53C844.766 2702.38 823.802 2748.46 802.407 2794.77L627.459 2396.86H471.66V2404.18C477.497 2405.16 484.58 2406.75 492.86 2408.92C501.202 2411.14 509.117 2414.73 516.282 2419.55C523.97 2424.82 530.447 2431.68 535.284 2439.65C540.657 2448.2 543.588 2459.29 544.076 2472.94C544.54 2487.08 544.809 2499.02 544.809 2508.77V2600.94C544.809 2633.62 544.565 2664.22 544.076 2692.73C543.588 2721.24 542.855 2745.99 541.878 2766.98C541.7 2788.17 539.986 2809.32 536.749 2830.26C534.514 2845.42 529.82 2860.13 522.852 2873.78C516.922 2885.05 508.084 2894.52 497.256 2901.21C486.542 2907.72 472.645 2912.72 455.564 2916.21V2923.53H646.51V2916.21C625.522 2913.27 609.06 2908.52 597.125 2901.94C585.672 2895.86 576.356 2886.42 570.43 2874.88C564.084 2861.57 560.361 2847.17 559.463 2832.46C557.998 2815.64 557.265 2795.76 557.265 2772.84V2679.2C557.265 2652.4 557.387 2626.92 557.632 2602.77C557.876 2578.63 558.12 2554.2 558.364 2529.5C558.609 2504.88 558.731 2476.48 558.731 2444.29C561.157 2449.66 565.667 2459.9 572.262 2475.01C578.856 2490.12 587.266 2508.9 597.491 2531.34C607.733 2553.76 619.196 2579.35 631.88 2608.12C644.564 2636.89 658.217 2667.74 672.839 2700.67C687.493 2733.59 702.489 2767.85 717.828 2803.44C733.166 2839.03 748.634 2874.86 764.233 2910.91H768.629C769.606 2907.97 772.024 2902.02 775.956 2892.98C779.888 2883.94 784.016 2873.98 788.412 2862.99C792.809 2852 797.18 2841.3 801.577 2830.82C805.973 2820.34 809.368 2812.65 811.81 2807.76C827.898 2771.7 842.65 2738.66 856.066 2708.65C869.483 2678.64 882.77 2649.27 895.926 2620.53C909.082 2591.76 922.369 2562.26 935.786 2532.02C949.203 2501.78 963.955 2468.62 980.042 2432.54V2730.41C980.042 2759.72 979.553 2790.44 978.576 2822.56C978.097 2832.24 977.119 2841.88 975.645 2851.46C974.573 2859.65 972.361 2867.66 969.075 2875.25C964.191 2885.49 954.682 2894.51 940.548 2902.31C926.415 2910.11 908.863 2914.5 887.891 2915.47V2923.51H1138.75V2916.18C1128.32 2915.92 1117.99 2914.07 1108.12 2910.71C1100.33 2908.07 1092.94 2904.38 1086.14 2899.74Z" fill="url(#paint4_linear_63_262)"/>
<path d="M1662.54 2756.01C1638.12 2797.94 1610.2 2832.56 1578.8 2859.89C1547.39 2887.21 1511.88 2903.05 1472.28 2907.42C1458.13 2908.88 1444.6 2909.86 1431.69 2910.35C1418.78 2910.83 1408.19 2911.08 1399.94 2911.08H1340.64C1321.1 2911.08 1299.12 2910.83 1274.69 2910.35L1644.18 2402.72L1641.98 2398.33H1407.93C1379.15 2398.33 1352.34 2398.2 1327.47 2397.96C1302.61 2397.71 1281.15 2397.47 1263.09 2397.23C1245.04 2396.98 1232.6 2396.62 1225.8 2396.13L1172.38 2551.93L1180.44 2554.86C1186.64 2544.88 1193.35 2535.24 1200.54 2525.96C1208.6 2515.49 1217.02 2505.13 1225.8 2494.87C1234.57 2484.61 1243.23 2475.23 1251.76 2466.71C1260.29 2458.18 1267.48 2451.48 1273.33 2446.61C1285.7 2436.75 1299.37 2428.62 1313.94 2422.46C1329.87 2415.89 1346.82 2412.18 1364.04 2411.49C1373.3 2411.03 1385.86 2410.67 1401.7 2410.39C1417.54 2410.11 1434.25 2409.99 1451.82 2410.02H1543.97L1173.85 2918.41L1176.78 2923.51H1617.85L1670.51 2758.87L1662.54 2756.01Z" fill="url(#paint5_linear_63_262)"/>
<path d="M2178.86 2908.76C2171.28 2905.33 2164.25 2900.76 2158.03 2895.23C2152.97 2890.75 2148.44 2885.72 2144.5 2880.23C2142.09 2876.96 2139.89 2873.54 2137.91 2870C2132.08 2857.31 2126.83 2845.97 2122.18 2835.97C2117.52 2825.98 2112.52 2813.42 2107.18 2798.31C2095.49 2767.59 2083.79 2736.5 2072.08 2705.06C2060.38 2673.62 2048.3 2641.05 2035.86 2607.37C2023.42 2573.74 2010.4 2538.74 1996.78 2502.34C1983.17 2465.95 1968.79 2427.55 1953.63 2387.14H1947.79C1945.84 2390.56 1943.03 2394.94 1939.36 2400.3C1935.26 2406.23 1930.74 2411.85 1925.83 2417.13C1920.13 2423.28 1913.88 2428.91 1907.17 2433.96C1899.82 2439.5 1891.84 2444.16 1883.41 2447.85L1890.74 2463.95C1879.01 2491.26 1866.57 2520.63 1853.42 2552.07C1840.26 2583.51 1826.97 2614.73 1813.56 2645.71L1774.48 2736.08C1761.78 2765.39 1750.32 2791.44 1740.09 2814.24C1731.66 2833.62 1722.08 2852.49 1711.39 2870.73C1703.61 2883.41 1698 2891.46 1694.56 2894.86C1693.12 2896.81 1687.87 2900.48 1678.84 2905.85C1668.84 2911.52 1657.75 2915.01 1646.3 2916.08V2924.12H1802.1V2916.79C1795.75 2915.81 1789.04 2914.72 1781.98 2913.49C1775.18 2912.35 1768.56 2910.39 1762.24 2907.63C1756.6 2905.29 1751.49 2901.8 1747.25 2897.4C1743.29 2893.14 1741.18 2887.48 1741.38 2881.67C1741.38 2870.94 1746.51 2852.41 1756.75 2826.08C1763.55 2809 1770.38 2792.06 1777.24 2775.26C1784.09 2758.45 1791.16 2740.77 1798.44 2722.21H1993C2000.33 2741.23 2007.16 2759.52 2013.49 2777.09C2019.82 2794.66 2025.43 2810.62 2030.32 2824.98C2035.2 2839.36 2038.98 2851.57 2041.65 2861.62C2043.82 2868.63 2045.17 2875.87 2045.68 2883.18C2045.78 2886.32 2045.21 2889.45 2044.01 2892.35C2042.81 2895.25 2041.01 2897.86 2038.72 2900.01C2034.06 2904.43 2028.6 2907.9 2022.63 2910.25C2013.61 2913.82 2004.12 2916.04 1994.46 2916.84V2924.17H2208.05V2915.4C2197.98 2915.14 2188.06 2912.88 2178.86 2908.76ZM1805.18 2706.87C1816.87 2678.13 1827.71 2651.44 1837.71 2626.78C1847.71 2602.13 1856.85 2580.07 1865.14 2560.59C1873.44 2541.06 1880.4 2524.47 1886 2510.84C1891.6 2497.21 1895.87 2487.22 1898.8 2480.85C1903.19 2491.6 1908.68 2505.37 1915.26 2522.18C1921.84 2538.98 1929.16 2557.52 1937.24 2577.79C1945.38 2598.01 1953.68 2619.1 1962.13 2641.05C1970.58 2663 1978.99 2684.98 1987.36 2706.99L1805.18 2706.87Z" fill="url(#paint6_linear_63_262)"/>
<defs>
<linearGradient id="paint0_linear_63_262" x1="782.771" y1="-299" x2="-117.094" y2="600.865" gradientUnits="userSpaceOnUse">
<stop stop-color="#BA55FF"/>
<stop offset="1" stop-color="#35029C"/>
</linearGradient>
<linearGradient id="paint1_linear_63_262" x1="1169.65" y1="-1023.04" x2="-763.282" y2="909.89" gradientUnits="userSpaceOnUse">
<stop stop-color="#64EBEC"/>
<stop offset="1" stop-color="#3B31BC"/>
</linearGradient>
<linearGradient id="paint2_linear_63_262" x1="-2179.52" y1="-2726.44" x2="-3534.54" y2="-1371.42" gradientUnits="userSpaceOnUse">
<stop stop-color="#BA55FF"/>
<stop offset="1" stop-color="#35029C"/>
</linearGradient>
<linearGradient id="paint3_linear_63_262" x1="1067.63" y1="2374.25" x2="1067.63" y2="3159.7" gradientUnits="userSpaceOnUse">
<stop stop-color="#BA55FF"/>
<stop offset="1" stop-color="#35029C"/>
</linearGradient>
<linearGradient id="paint4_linear_63_262" x1="3194.63" y1="2374.25" x2="3194.63" y2="3159.81" gradientUnits="userSpaceOnUse">
<stop stop-color="#BA55FF"/>
<stop offset="1" stop-color="#35029C"/>
</linearGradient>
<linearGradient id="paint5_linear_63_262" x1="3169.5" y1="2373.49" x2="3169.5" y2="3160.1" gradientUnits="userSpaceOnUse">
<stop stop-color="#BA55FF"/>
<stop offset="1" stop-color="#35029C"/>
</linearGradient>
<linearGradient id="paint6_linear_63_262" x1="3898.5" y1="2364.09" x2="3898.5" y2="3165.09" gradientUnits="userSpaceOnUse">
<stop stop-color="#BA55FF"/>
<stop offset="1" stop-color="#35029C"/>
</linearGradient>
</defs>
</svg>
